<?xml version="1.0" encoding="utf-8"?>
<!-- Generator: Adobe Illustrator 24.3.0, SVG Export Plug-In . SVG Version: 6.00 Build 0)  -->
<svg version="1.1" id="レイヤー_1" xmlns="http://www.w3.org/2000/svg" xmlns:xlink="http://www.w3.org/1999/xlink" x="0px"
	 y="0px" viewBox="0 0 838.44 93.91" style="enable-background:new 0 0 838.44 93.91;" xml:space="preserve">
<style type="text/css">
	.st0{clip-path:url(#SVGID_2_);}
	.st1{fill:#7AA36D;}
	.st2{clip-path:url(#SVGID_4_);}
</style>
<g>
	<g>
		<path d="M198.85,49.87c-0.03,0.08-0.02,0.16,0.02,0.24c0.04,0.08,0.12,0.12,0.22,0.12h10.66c0.98,0,1.81,0.35,2.5,1.04
			s1.04,1.53,1.04,2.5v26.96c0,0.6-0.2,1.09-0.61,1.48c-0.41,0.39-0.89,0.59-1.46,0.59h-0.16c-0.52,0-0.96-0.18-1.32-0.55
			c-0.37-0.37-0.55-0.81-0.55-1.32c0-0.14-0.07-0.2-0.2-0.2h-20.62c-0.16,0-0.24,0.08-0.24,0.24v0.08c0,0.51-0.19,0.96-0.57,1.34
			c-0.38,0.38-0.83,0.57-1.36,0.57c-0.53,0-0.98-0.19-1.36-0.57c-0.38-0.38-0.57-0.83-0.57-1.34V53.77c0-0.98,0.35-1.81,1.04-2.5
			s1.52-1.04,2.5-1.04h6.55c0.27,0,0.45-0.13,0.53-0.41c0.3-0.98,0.56-1.94,0.77-2.89c0.16-0.65,0.5-1.17,1.02-1.55
			c0.46-0.33,0.95-0.49,1.46-0.49c0.11,0,0.22,0.01,0.33,0.04c0.6,0.05,1.03,0.33,1.3,0.81c0.19,0.3,0.28,0.61,0.28,0.94
			c0,0.22-0.04,0.43-0.12,0.65C199.51,48.32,199.15,49.16,198.85,49.87z M209.18,54.34c0-0.27-0.14-0.41-0.41-0.41h-20.25
			c-0.27,0-0.41,0.14-0.41,0.41v4.51c0,0.27,0.14,0.41,0.41,0.41h20.25c0.27,0,0.41-0.14,0.41-0.41V54.34z M209.18,63.25
			c0-0.27-0.14-0.41-0.41-0.41h-20.25c-0.27,0-0.41,0.14-0.41,0.41v4.51c0,0.27,0.14,0.41,0.41,0.41h20.25
			c0.27,0,0.41-0.14,0.41-0.41V63.25z M188.12,76.75c0,0.27,0.14,0.41,0.41,0.41h20.25c0.27,0,0.41-0.14,0.41-0.41v-4.6
			c0-0.27-0.14-0.41-0.41-0.41h-20.25c-0.27,0-0.41,0.14-0.41,0.41V76.75z"/>
		<path d="M244.69,49.54c-0.16-0.27-0.26-0.55-0.28-0.85c0-0.22,0.05-0.42,0.16-0.61c0.19-0.51,0.53-0.87,1.02-1.06
			c0.27-0.11,0.54-0.16,0.81-0.16c0.27,0,0.53,0.04,0.77,0.12c0.54,0.22,0.96,0.57,1.26,1.06c1.19,2.06,2.64,4.12,4.35,6.18
			s3.46,3.86,5.25,5.41c0.49,0.43,0.73,0.98,0.73,1.63c0,0.6-0.2,1.1-0.61,1.5c-0.46,0.49-1,0.76-1.63,0.81c-0.05,0-0.12,0-0.2,0
			c-0.54,0-1.04-0.2-1.5-0.61c-0.49-0.49-0.96-0.99-1.42-1.5c-0.05-0.05-0.11-0.07-0.16-0.04c-0.08,0.03-0.14,0.08-0.16,0.16
			c0,0.6,0,1,0,1.22c-0.27,6.4-0.58,10.97-0.94,13.73c-0.35,2.75-0.88,4.54-1.59,5.35c-0.46,0.6-0.94,1-1.42,1.2
			c-0.49,0.2-1.15,0.37-1.99,0.51c-0.62,0.05-1.48,0.08-2.56,0.08c-0.54,0-1.15,0-1.83,0c-0.6-0.03-1.11-0.24-1.53-0.63
			c-0.42-0.39-0.74-0.89-0.96-1.48c-0.14-0.43-0.08-0.83,0.16-1.2s0.6-0.54,1.06-0.51c1.36,0.08,2.62,0.12,3.78,0.12
			c0.81,0,1.41-0.2,1.79-0.61c0.49-0.49,0.87-1.81,1.16-3.97c0.28-2.16,0.53-5.55,0.75-10.19c0-0.11-0.04-0.2-0.12-0.28
			c-0.08-0.08-0.18-0.12-0.28-0.12h-8.79c-0.27,0-0.43,0.14-0.49,0.41c-0.22,1.6-0.49,3.05-0.81,4.35c-0.33,1.3-0.79,2.64-1.4,4.03
			s-1.36,2.63-2.24,3.74c-0.88,1.11-1.99,2.19-3.31,3.23c-1.33,1.04-2.86,1.95-4.6,2.71c-0.3,0.13-0.6,0.2-0.89,0.2
			c-0.27,0-0.53-0.05-0.77-0.16c-0.6-0.19-1.06-0.54-1.38-1.06c-0.22-0.3-0.33-0.61-0.33-0.94c0-0.14,0.01-0.27,0.04-0.41
			c0.14-0.49,0.43-0.83,0.9-1.02c1.49-0.65,2.82-1.4,3.99-2.24c1.17-0.84,2.12-1.71,2.85-2.62c0.73-0.91,1.36-1.92,1.89-3.05
			s0.93-2.21,1.2-3.25s0.5-2.22,0.69-3.52c0-0.11-0.03-0.2-0.1-0.28c-0.07-0.08-0.16-0.12-0.26-0.12h-4.51
			c-0.79,0-1.46-0.29-2.01-0.85c-0.56-0.57-0.83-1.25-0.83-2.03c0-0.03-0.03-0.05-0.1-0.08c-0.07-0.03-0.12-0.03-0.14,0
			c-0.6,0.6-1.21,1.17-1.83,1.71c-0.43,0.38-0.94,0.56-1.5,0.53c-0.05,0-0.12,0-0.2,0c-0.62-0.03-1.17-0.26-1.63-0.69
			c-0.38-0.38-0.57-0.84-0.57-1.38c0-0.6,0.23-1.08,0.69-1.46c4.07-3.23,7.28-7.29,9.64-12.2c0.27-0.6,0.69-1.02,1.26-1.26
			c0.33-0.14,0.66-0.2,1.02-0.2c0.22,0,0.43,0.03,0.65,0.08c0.6,0.16,0.99,0.5,1.18,1.02c0.14,0.24,0.2,0.5,0.2,0.75
			s-0.07,0.52-0.2,0.79c-2.01,4.15-4.56,7.88-7.65,11.18c-0.05,0.05-0.07,0.12-0.04,0.2c0.03,0.08,0.08,0.12,0.16,0.12h24.24
			c0.08,0,0.14-0.04,0.18-0.12s0.03-0.15-0.02-0.2C249.61,57.27,246.94,53.55,244.69,49.54z"/>
		<path d="M298.66,62.8c0.46,3.04,0.08,5.97-1.14,8.81c-1.22,2.83-3.1,5.12-5.65,6.85c-2.39,1.6-4.83,2.58-7.32,2.93
			c-0.87,0.14-1.52-0.1-1.95-0.71c-0.43-0.61-0.52-1.28-0.26-2.01c0.26-0.73,0.78-1.18,1.57-1.34c2.71-0.54,5.06-1.73,7.04-3.58
			c1.98-1.84,3.17-4.07,3.58-6.67c0.49-3.31-0.23-6.13-2.16-8.46c-1.79-2.06-4.39-3.24-7.81-3.54c0.03,0.24,0.04,0.52,0.04,0.81
			c0,1-0.19,2.02-0.57,3.05c-0.14,0.38-0.22,0.61-0.24,0.69c-0.03,0.08-0.12,0.34-0.28,0.77c-0.16,0.43-0.24,0.67-0.24,0.69
			c-0.92,2.44-1.95,4.87-3.09,7.28c-1.68,3.5-3.01,5.92-3.99,7.28c-0.35,0.49-0.72,0.94-1.1,1.34c-1.93,2.2-4.11,2.25-6.55,0.16
			c-1.71-1.46-2.81-3.34-3.29-5.63c-0.49-2.29-0.47-4.54,0.06-6.75c0.53-2.21,1.4-4.25,2.62-6.12c1.87-2.85,4.32-4.93,7.36-6.24
			c3.04-1.32,6.3-1.81,9.8-1.49c3.5,0.33,6.5,1.54,9.01,3.64C296.59,56.66,298.12,59.41,298.66,62.8z M280.36,56.33
			c0.27-1.22-0.56-1.44-2.48-0.65c-0.03,0.03-0.35,0.16-0.98,0.41c-1.9,0.87-3.51,2.16-4.84,3.86c-1.22,1.6-2.1,3.41-2.64,5.43
			c-0.54,2.02-0.53,3.92,0.04,5.71c0.27,1.03,0.75,1.88,1.42,2.56c0.35,0.38,0.6,0.58,0.73,0.61c0.14,0.03,0.38-0.14,0.73-0.49
			c0.98-1.27,2.1-3.19,3.38-5.73C278.33,62.73,279.87,58.83,280.36,56.33z"/>
		<path d="M316.8,54.01c1.08,0,1.86,0.04,2.32,0.12c0.33,0.05,0.59,0.21,0.79,0.47c0.2,0.26,0.29,0.55,0.26,0.88
			c-0.52,6.78-1.67,12.34-3.46,16.67c-0.11,0.24-0.05,0.46,0.16,0.65c1.14,0.9,2.14,1.79,3.01,2.68c0.41,0.41,0.61,0.92,0.61,1.55
			c0,0.51-0.16,0.99-0.49,1.42c-0.3,0.38-0.69,0.58-1.18,0.61h-0.04c-0.49,0-0.89-0.18-1.22-0.53c-0.73-0.79-1.53-1.55-2.4-2.28
			c-0.22-0.19-0.39-0.18-0.53,0.04c-1.57,2.63-3.54,4.81-5.9,6.55c-0.33,0.24-0.67,0.37-1.02,0.37c-0.14,0-0.28-0.03-0.45-0.08
			c-0.52-0.11-0.94-0.38-1.26-0.81c-0.19-0.27-0.31-0.56-0.35-0.88s0-0.61,0.12-0.89c0.12-0.28,0.32-0.52,0.59-0.71
			c2.06-1.44,3.82-3.42,5.29-5.94c0.14-0.24,0.09-0.45-0.12-0.61c-1.22-0.92-2.18-1.61-2.89-2.07c-0.11-0.05-0.19-0.03-0.24,0.08
			c-0.08,0.35-0.29,0.6-0.63,0.75c-0.34,0.15-0.69,0.13-1.04-0.06l-0.28-0.16c-0.46-0.24-0.79-0.61-0.98-1.1
			c-0.14-0.27-0.2-0.55-0.2-0.85c0-0.22,0.03-0.42,0.08-0.61c0.76-2.85,1.64-6.62,2.64-11.31c0.03-0.11,0.01-0.2-0.04-0.26
			c-0.05-0.07-0.14-0.1-0.24-0.1h-1.46c-0.49,0-0.91-0.18-1.26-0.53c-0.35-0.35-0.53-0.78-0.53-1.28c0-0.5,0.18-0.92,0.53-1.26
			c0.35-0.34,0.77-0.51,1.26-0.51h2.2c0.27,0,0.43-0.14,0.49-0.41c0.43-2.3,0.81-4.35,1.14-6.14c0.08-0.51,0.34-0.93,0.77-1.26
			c0.35-0.24,0.73-0.37,1.14-0.37c0.08,0,0.16,0,0.24,0c0.51,0.05,0.92,0.28,1.22,0.69c0.22,0.3,0.33,0.62,0.33,0.98
			c0,0.14-0.01,0.26-0.04,0.37c-0.22,1.14-0.61,3.05-1.18,5.73c-0.03,0.11-0.01,0.2,0.06,0.29c0.07,0.08,0.16,0.12,0.26,0.12H316.8z
			 M316.31,58c0-0.11-0.03-0.2-0.1-0.29c-0.07-0.08-0.16-0.12-0.26-0.12h-3.86c-0.27,0-0.42,0.12-0.45,0.37
			c-0.46,2.17-1.18,5.23-2.16,9.19c-0.05,0.24,0.03,0.45,0.24,0.61c1.52,0.95,2.66,1.68,3.42,2.2c0.22,0.16,0.38,0.12,0.49-0.12
			C314.93,66.5,315.82,62.55,316.31,58z M340.8,62.11c0.51,0,0.95,0.18,1.3,0.55c0.35,0.37,0.53,0.8,0.53,1.3
			c0,0.5-0.18,0.93-0.53,1.28c-0.35,0.35-0.79,0.53-1.3,0.53h-7.32c-0.27,0-0.41,0.14-0.41,0.41v13.06c0,1.08-0.14,1.92-0.43,2.5
			s-0.78,1.04-1.48,1.36c-1,0.41-2.6,0.64-4.8,0.69h-0.04c-0.54,0-1.04-0.18-1.5-0.53c-0.46-0.38-0.81-0.85-1.06-1.42
			c-0.16-0.43-0.12-0.84,0.14-1.22c0.26-0.38,0.62-0.57,1.08-0.57c0.7,0,1.31,0,1.83,0c0.65,0,1.15,0,1.5,0
			c0.33,0,0.55-0.06,0.67-0.18s0.18-0.33,0.18-0.63V66.17c0-0.27-0.14-0.41-0.41-0.41h-7.04c-0.52,0-0.95-0.18-1.3-0.53
			c-0.35-0.35-0.53-0.78-0.53-1.28c0-0.5,0.18-0.94,0.53-1.3c0.35-0.37,0.79-0.55,1.3-0.55h7.04c0.27,0,0.41-0.13,0.41-0.41v-3.5
			c0-0.35,0.13-0.66,0.39-0.92c0.26-0.26,0.56-0.39,0.92-0.39c0.08,0,0.16-0.03,0.24-0.08c1.63-1.49,3.17-3.23,4.64-5.21
			c0.05-0.05,0.06-0.12,0.02-0.2c-0.04-0.08-0.1-0.12-0.18-0.12H323.1c-0.49,0-0.91-0.18-1.26-0.53c-0.35-0.35-0.53-0.77-0.53-1.26
			s0.18-0.91,0.53-1.26c0.35-0.35,0.77-0.53,1.26-0.53h15.21c0.05,0,0.11,0,0.16,0c0.14-0.05,0.27-0.08,0.41-0.08
			c0.27,0,0.54,0.1,0.81,0.29l0.73,0.53c0.35,0.27,0.56,0.62,0.63,1.06c0.07,0.43-0.02,0.83-0.26,1.18
			c-2.36,3.15-4.84,5.84-7.44,8.09c-0.19,0.19-0.28,0.42-0.28,0.69v2.24c0,0.27,0.14,0.41,0.41,0.41H340.8z"/>
		<path d="M377.81,58.65c1,1.68-0.37,3.11-4.11,4.27c-0.16,0.05-0.28,0.1-0.37,0.12c-0.08,0.03-0.24,0.08-0.47,0.16
			c-0.23,0.08-0.39,0.14-0.47,0.16l0.24,1.1c0.08,0.27,0.18,0.66,0.31,1.16s0.2,0.79,0.22,0.87c0.27,1.6,0.38,2.82,0.33,3.66
			c-0.16,1.28-0.69,2.12-1.59,2.52c-0.65,0.3-1.74,0.27-3.25-0.08c-3.5-0.84-6.34-1.07-8.54-0.69c-2.14,0.38-3.33,1.18-3.58,2.4
			c-0.14,0.65-0.08,1.28,0.18,1.89c0.26,0.61,0.66,1.09,1.2,1.44c1.79,1.19,4.85,1.7,9.19,1.5c0.6-0.03,1.52-0.13,2.77-0.33
			c1.25-0.19,2.18-0.3,2.81-0.33c0.62-0.03,1.15,0.2,1.59,0.67c0.43,0.47,0.62,1.02,0.57,1.65c-0.03,0.16-0.07,0.33-0.12,0.49
			c-0.24,0.65-0.91,1.11-1.99,1.38c-1.3,0.33-3.46,0.54-6.47,0.65c-4.45,0.11-7.84-0.52-10.17-1.87c-1.38-0.84-2.42-2-3.11-3.48
			c-0.69-1.48-0.86-2.99-0.51-4.53c0.35-1.68,1.17-3,2.44-3.97c1.27-0.96,2.8-1.54,4.58-1.73c1.78-0.19,3.46-0.21,5.04-0.06
			c1.59,0.15,3.15,0.4,4.7,0.75c-0.08-0.73-0.23-1.5-0.45-2.32c-0.03-0.16-0.07-0.38-0.14-0.65c-0.07-0.27-0.12-0.46-0.14-0.57
			c-0.08-0.33-0.23-0.45-0.45-0.37c-0.11,0.03-0.19,0.05-0.24,0.08c-2.28,0.54-4.19,0.9-5.73,1.06c-4.31,0.54-7.17-0.18-8.58-2.16
			c-0.41-0.54-0.5-1.15-0.28-1.81c0.22-0.66,0.65-1.12,1.3-1.36c0.62-0.22,1.27-0.07,1.93,0.43c0.66,0.5,1.12,0.78,1.36,0.83
			c0.35,0.08,0.74,0.13,1.16,0.14c0.42,0.01,0.79,0.02,1.12,0.02c0.33,0,0.74-0.03,1.24-0.08c0.5-0.05,0.9-0.1,1.18-0.14
			s0.71-0.12,1.28-0.24s0.94-0.2,1.12-0.24c0.18-0.04,0.58-0.14,1.2-0.3c0.62-0.16,0.99-0.26,1.1-0.29l-0.73-2.36
			c-0.03-0.08-0.05-0.18-0.08-0.29c-0.03-0.11-0.05-0.18-0.06-0.22c-0.01-0.04-0.04-0.09-0.08-0.16c-0.04-0.07-0.1-0.09-0.16-0.08
			c-0.07,0.01-0.17,0.02-0.3,0.02c-0.41,0.11-0.76,0.18-1.06,0.2c-1.87,0.41-3.51,0.65-4.92,0.73c-1.63,0.14-3.18,0.01-4.66-0.37
			c-1.48-0.38-2.43-1.19-2.87-2.44c-0.19-0.62-0.14-1.21,0.16-1.75s0.77-0.88,1.42-1.02c0.51-0.08,1.04,0.1,1.57,0.55
			c0.53,0.45,0.92,0.7,1.16,0.75c0.41,0.11,0.86,0.18,1.36,0.2c0.5,0.03,0.93,0.04,1.28,0.04c0.35,0,0.87-0.05,1.55-0.14
			c0.68-0.09,1.1-0.16,1.28-0.2s0.67-0.16,1.48-0.35c0.81-0.19,1.23-0.28,1.26-0.28l-1.63-4.31c-0.41-1.06-0.3-1.91,0.33-2.56
			c0.43-0.49,1.01-0.69,1.73-0.61c0.72,0.08,1.24,0.43,1.57,1.06c0.08,0.14,0.43,1,1.06,2.6l0.98,2.77c0.95-0.27,1.64-0.5,2.07-0.69
			c0.14-0.05,0.43-0.17,0.87-0.35c0.45-0.18,0.79-0.29,1.02-0.35c0.23-0.05,0.51-0.07,0.85-0.04c0.34,0.03,0.64,0.14,0.92,0.33
			c0.54,0.41,0.83,0.96,0.85,1.67c0.03,0.71-0.23,1.26-0.77,1.67c-0.27,0.22-0.62,0.41-1.04,0.59c-0.42,0.18-0.77,0.32-1.06,0.43
			s-0.71,0.24-1.28,0.39c-0.57,0.15-0.92,0.25-1.06,0.31l1.02,3.17c2.09-0.71,3.33-1.18,3.74-1.42c0.46-0.27,0.98-0.34,1.55-0.2
			S377.51,58.19,377.81,58.65z"/>
		<path d="M402.37,57.76c-3.47,8.89-5.38,13.81-5.73,14.76c-0.41,1.25-0.8,2.03-1.18,2.36c-0.33,0.3-0.73,0.45-1.22,0.45
			c-0.52,0-0.94-0.1-1.26-0.31c-0.33-0.2-0.52-0.5-0.59-0.89c-0.07-0.39-0.1-0.78-0.1-1.16c0-0.38,0.09-0.85,0.26-1.42
			c0.18-0.57,0.32-1.02,0.43-1.34s0.28-0.75,0.53-1.28c0.24-0.53,0.38-0.83,0.41-0.92l3.95-10.21c-2.03,0.16-3.57-0.16-4.6-0.98
			c-0.68-0.49-1.13-1.04-1.36-1.65c-0.23-0.61-0.09-1.28,0.43-2.01c0.84-0.98,1.98-0.88,3.42,0.29c0.43,0.35,1.71,0.33,3.82-0.08
			c0.03-0.05,0.09-0.21,0.18-0.47c0.09-0.26,0.16-0.43,0.18-0.51c0.03-0.08,0.08-0.24,0.16-0.49c0.08-0.24,0.13-0.43,0.14-0.55
			s0.04-0.29,0.08-0.49s0.05-0.39,0.04-0.55c-0.01-0.16-0.03-0.34-0.06-0.53c-0.03-0.19-0.07-0.37-0.12-0.53
			c-0.54-1.65-0.2-2.72,1.02-3.21c0.98-0.35,1.75-0.14,2.34,0.65c0.58,0.79,0.9,1.71,0.94,2.79s0.02,1.97-0.06,2.7
			c0.11-0.03,0.43-0.16,0.96-0.39c0.53-0.23,0.97-0.39,1.32-0.49c0.35-0.09,0.71-0.13,1.06-0.1c0.68,0.05,1.2,0.38,1.57,0.98
			c0.37,0.6,0.43,1.21,0.18,1.83c-0.08,0.22-0.2,0.41-0.35,0.59c-0.15,0.18-0.35,0.33-0.61,0.47c-0.26,0.14-0.45,0.24-0.57,0.31
			s-0.37,0.16-0.75,0.26c-0.38,0.11-0.6,0.18-0.65,0.2L404,56.62c-0.08,0.03-0.22,0.06-0.43,0.1c-0.2,0.04-0.33,0.07-0.37,0.08
			c-0.04,0.01-0.12,0.05-0.24,0.1c-0.12,0.05-0.2,0.12-0.24,0.18c-0.04,0.07-0.1,0.16-0.16,0.26
			C402.49,57.46,402.43,57.59,402.37,57.76z M422.34,60.44c0.13,0.87-0.17,1.56-0.92,2.07c-0.75,0.52-1.5,0.54-2.26,0.08
			c-0.14-0.08-0.33-0.22-0.59-0.41s-0.48-0.33-0.67-0.43c-0.19-0.09-0.4-0.19-0.63-0.28s-0.47-0.14-0.73-0.14
			c-0.26,0-0.51,0.05-0.75,0.16c-0.19,0.08-0.33,0.26-0.43,0.53c-0.1,0.27-0.14,0.51-0.14,0.71s0.01,0.5,0.02,0.87
			c0.01,0.38,0.02,0.6,0.02,0.65c0,0.46-0.01,1.44-0.02,2.95c-0.01,1.5-0.03,2.66-0.06,3.48c0,0.16-0.01,0.41-0.04,0.75
			c-0.03,0.34-0.04,0.59-0.04,0.75c0,0.16,0.04,0.29,0.12,0.39c0.08,0.1,0.22,0.2,0.43,0.33c0.2,0.12,0.33,0.2,0.39,0.22
			c0.89,0.51,1.8,1.21,2.73,2.07c2.25,2.09,3.32,3.74,3.21,4.96c-0.08,0.87-0.54,1.44-1.38,1.73c-0.84,0.28-1.56,0.11-2.16-0.51
			c-0.24-0.24-0.54-0.64-0.89-1.18s-0.61-0.92-0.77-1.14c-0.76-0.84-1.56-1.53-2.4-2.07c-0.95,3.28-2.79,5.15-5.53,5.61
			c-1.44,0.24-2.92,0.18-4.45-0.2c-1.53-0.38-2.7-1.08-3.52-2.12c-0.95-1.27-1.25-2.64-0.92-4.09c0.34-1.45,1.16-2.61,2.46-3.48
			c1.17-0.81,2.52-1.37,4.07-1.67c1.55-0.3,3.04-0.3,4.47,0c0-0.03,0.05-2.1,0.16-6.22c0-0.03,0-0.27,0-0.73c0-0.46,0-0.75,0-0.85
			c0-0.76,0.08-1.53,0.24-2.32c0.08-0.3,0.17-0.56,0.26-0.79c0.09-0.23,0.21-0.45,0.35-0.67c-0.84-0.05-1.47-0.41-1.89-1.06
			c-0.42-0.65-0.41-1.37,0.02-2.16c0.3-0.46,0.75-0.75,1.36-0.87c0.61-0.12,1.12-0.14,1.53-0.06c0.41,0.08,0.98,0.22,1.71,0.41
			c0.73,0.16,1.3,0.3,1.71,0.41c0.41,0.11,1.01,0.32,1.81,0.63s1.44,0.61,1.93,0.89c0.49,0.28,0.96,0.67,1.4,1.16
			C422,59.3,422.26,59.84,422.34,60.44z M409.85,77.2c0.3-0.54,0.52-1.21,0.65-1.99c-1.38-0.33-2.89-0.22-4.51,0.33
			c-1.55,0.54-2.21,1.19-1.99,1.95c0.19,0.62,1.19,0.99,3.01,1.1C408.44,78.63,409.39,78.17,409.85,77.2z"/>
		<path d="M436.33,55.72c0.24-0.46,0.6-0.8,1.06-1.02c0.27-0.11,0.54-0.16,0.81-0.16c0.22,0,0.43,0.04,0.65,0.12
			c0.46,0.16,0.79,0.46,0.98,0.89c0.08,0.22,0.12,0.42,0.12,0.61c0,0.24-0.05,0.49-0.16,0.73c-0.65,1.25-1.42,2.56-2.32,3.94
			c-0.14,0.24-0.2,0.5-0.2,0.77v20.5c0,0.49-0.18,0.91-0.53,1.26c-0.35,0.35-0.78,0.53-1.28,0.53c-0.5,0-0.92-0.18-1.26-0.53
			c-0.34-0.35-0.51-0.77-0.51-1.26v-15.7c0-0.08-0.03-0.14-0.1-0.16c-0.07-0.03-0.13-0.01-0.18,0.04c-0.49,0.54-0.96,1.04-1.42,1.5
			c-0.3,0.3-0.65,0.45-1.06,0.45c-0.08,0-0.16-0.01-0.24-0.04c-0.52-0.08-0.9-0.33-1.16-0.75c-0.26-0.42-0.39-0.86-0.39-1.32
			c0-0.08,0-0.18,0-0.28c0.08-0.6,0.33-1.08,0.73-1.46C432.47,61.86,434.62,58.98,436.33,55.72z M435.07,47.26
			c0.3-0.46,0.71-0.79,1.22-0.98c0.27-0.11,0.53-0.16,0.77-0.16s0.49,0.05,0.73,0.16c0.46,0.16,0.77,0.47,0.94,0.94
			c0.05,0.16,0.08,0.33,0.08,0.49c0,0.27-0.08,0.52-0.24,0.73c-1.84,2.63-3.93,4.99-6.26,7.08c-0.3,0.24-0.62,0.37-0.98,0.37
			c-0.08,0-0.18,0-0.29,0c-0.46-0.08-0.82-0.3-1.08-0.67s-0.39-0.74-0.39-1.12c0-0.08,0-0.16,0-0.24c0.05-0.49,0.27-0.89,0.65-1.22
			C432.13,51,433.74,49.21,435.07,47.26z M454.27,75.77c0.46-0.05,0.87,0.07,1.22,0.37c0.35,0.3,0.53,0.69,0.53,1.18
			s-0.15,0.89-0.45,1.22c-0.3,0.35-0.68,0.56-1.14,0.61c-2.68,0.35-7.1,0.9-13.26,1.63c-0.08,0-0.16,0-0.24,0
			c-0.41,0-0.77-0.12-1.1-0.37c-0.38-0.33-0.6-0.73-0.65-1.22c-0.03-0.08-0.04-0.15-0.04-0.2c0-0.41,0.13-0.77,0.41-1.1
			c0.33-0.38,0.73-0.6,1.22-0.65c0.51-0.05,1.29-0.14,2.34-0.24s1.78-0.18,2.22-0.2c0.3-0.03,0.45-0.18,0.45-0.45v-5
			c0-0.27-0.14-0.41-0.41-0.41h-3.58c-0.46,0-0.85-0.16-1.18-0.49s-0.49-0.71-0.49-1.16s0.16-0.83,0.49-1.16s0.72-0.49,1.18-0.49
			h3.58c0.27,0,0.41-0.13,0.41-0.41v-2.48c0-0.51,0.18-0.95,0.53-1.3c0.35-0.35,0.78-0.53,1.28-0.53s0.94,0.18,1.3,0.53
			s0.55,0.79,0.55,1.3v2.48c0,0.27,0.14,0.41,0.41,0.41h3.58c0.46,0,0.85,0.16,1.18,0.49c0.33,0.33,0.49,0.71,0.49,1.16
			s-0.16,0.83-0.49,1.16c-0.33,0.33-0.72,0.49-1.18,0.49h-3.58c-0.27,0-0.41,0.14-0.41,0.41v4.6c0,0.11,0.04,0.2,0.12,0.26
			c0.08,0.07,0.18,0.09,0.29,0.06C450.43,76.21,451.91,76.04,454.27,75.77z M445.44,58.69c0.27,0,0.41-0.14,0.41-0.41v-4.03
			c0-0.27-0.14-0.41-0.41-0.41h-3.13c-0.46,0-0.85-0.16-1.16-0.49s-0.47-0.72-0.47-1.18c0-0.46,0.16-0.85,0.47-1.16
			s0.7-0.47,1.16-0.47h3.13c0.27,0,0.41-0.14,0.41-0.41v-2.72c0-0.49,0.18-0.91,0.53-1.26c0.35-0.35,0.78-0.53,1.28-0.53
			c0.5,0,0.93,0.18,1.28,0.53c0.35,0.35,0.53,0.77,0.53,1.26v2.72c0,0.27,0.14,0.41,0.41,0.41h3.13c0.46,0,0.85,0.16,1.18,0.47
			s0.49,0.7,0.49,1.16c0,0.46-0.16,0.85-0.49,1.18s-0.72,0.49-1.18,0.49h-3.13c-0.27,0-0.41,0.14-0.41,0.41v4.03
			c0,0.27,0.14,0.41,0.41,0.41h3.78c0.46,0,0.86,0.17,1.2,0.51s0.51,0.75,0.51,1.22c0,0.47-0.17,0.87-0.51,1.2
			c-0.34,0.33-0.74,0.49-1.2,0.49h-12.08c-0.46,0-0.86-0.16-1.2-0.49c-0.34-0.33-0.51-0.73-0.51-1.2c0-0.47,0.17-0.88,0.51-1.22
			s0.74-0.51,1.2-0.51H445.44z M465.61,59.06c0.49,0,0.9,0.16,1.24,0.49c0.34,0.33,0.51,0.73,0.51,1.22s-0.17,0.9-0.51,1.24
			c-0.34,0.34-0.75,0.51-1.24,0.51h-1.38c-0.24,0-0.37,0.11-0.37,0.33v16.55c0,1.06-0.12,1.88-0.37,2.46s-0.69,1.01-1.34,1.28
			c-0.81,0.43-2.22,0.66-4.23,0.69l-0.08,0.04c-0.6,0-1.08-0.19-1.46-0.57c-0.43-0.35-0.73-0.83-0.89-1.42
			c-0.05-0.14-0.08-0.27-0.08-0.41c0-0.3,0.09-0.58,0.28-0.85c0.27-0.38,0.64-0.57,1.1-0.57h0.04c0.68,0,1.22,0,1.63,0
			c0.41,0,0.68,0,0.81,0c0.3,0,0.5-0.06,0.61-0.18c0.11-0.12,0.16-0.3,0.16-0.55V62.92c0-0.27-0.14-0.41-0.41-0.41h-1.83
			c-0.49,0-0.9-0.17-1.24-0.51c-0.34-0.34-0.51-0.75-0.51-1.24s0.17-0.89,0.51-1.22c0.34-0.33,0.75-0.49,1.24-0.49H465.61z
			 M465.09,47.95c0.49,0,0.9,0.17,1.24,0.51c0.34,0.34,0.51,0.75,0.51,1.22c0,0.47-0.17,0.88-0.51,1.22
			c-0.34,0.34-0.75,0.51-1.24,0.51h-6.95c-0.46,0-0.86-0.17-1.2-0.51s-0.51-0.75-0.51-1.22c0-0.47,0.17-0.88,0.51-1.22
			s0.74-0.51,1.2-0.51H465.09z"/>
	</g>
	<g>
		<path d="M478.41,77.33c-0.27,0-0.5-0.09-0.69-0.28c-0.19-0.19-0.29-0.41-0.29-0.68c0-0.27,0.1-0.5,0.29-0.69
			c0.19-0.19,0.42-0.29,0.69-0.29h4.07c0.27,0,0.49,0.1,0.68,0.29c0.19,0.19,0.28,0.42,0.28,0.69c0,0.27-0.09,0.49-0.28,0.68
			s-0.41,0.28-0.68,0.28H478.41z"/>
		<path d="M499.17,70.33c-1.9,4.86-2.94,7.55-3.13,8.07c-0.22,0.68-0.44,1.11-0.65,1.29c-0.18,0.16-0.4,0.24-0.67,0.24
			c-0.28,0-0.51-0.06-0.69-0.17c-0.18-0.11-0.29-0.27-0.32-0.49c-0.04-0.21-0.06-0.43-0.06-0.63c0-0.21,0.05-0.47,0.14-0.78
			c0.1-0.31,0.17-0.56,0.23-0.73c0.06-0.18,0.16-0.41,0.29-0.7c0.13-0.29,0.21-0.46,0.22-0.5l2.16-5.58
			c-1.11,0.09-1.95-0.09-2.51-0.53c-0.37-0.27-0.62-0.57-0.75-0.9c-0.13-0.33-0.05-0.7,0.23-1.1c0.46-0.53,1.08-0.48,1.87,0.16
			c0.24,0.19,0.93,0.18,2.09-0.04c0.01-0.03,0.05-0.12,0.1-0.26s0.08-0.23,0.1-0.28c0.01-0.04,0.04-0.13,0.09-0.27
			c0.04-0.13,0.07-0.23,0.08-0.3c0.01-0.07,0.02-0.16,0.04-0.27s0.03-0.21,0.02-0.3c-0.01-0.09-0.02-0.18-0.03-0.29
			c-0.02-0.1-0.04-0.2-0.07-0.29c-0.3-0.9-0.11-1.49,0.56-1.76c0.53-0.19,0.96-0.07,1.28,0.36c0.32,0.43,0.49,0.94,0.51,1.52
			c0.02,0.58,0.01,1.08-0.03,1.48c0.06-0.01,0.23-0.09,0.52-0.21c0.29-0.12,0.53-0.21,0.72-0.27s0.38-0.07,0.58-0.06
			c0.37,0.03,0.66,0.21,0.86,0.53c0.2,0.33,0.23,0.66,0.1,1c-0.04,0.12-0.11,0.23-0.19,0.32c-0.08,0.1-0.19,0.18-0.33,0.26
			c-0.14,0.07-0.25,0.13-0.31,0.17s-0.2,0.08-0.41,0.14c-0.21,0.06-0.33,0.1-0.36,0.11l-1.4,0.42c-0.04,0.02-0.12,0.03-0.23,0.06
			s-0.18,0.04-0.2,0.04c-0.02,0.01-0.07,0.03-0.13,0.06c-0.07,0.03-0.11,0.06-0.13,0.1s-0.05,0.09-0.09,0.14
			C499.24,70.16,499.2,70.24,499.17,70.33z M510.09,71.79c0.07,0.47-0.09,0.85-0.5,1.13c-0.41,0.28-0.82,0.3-1.23,0.04
			c-0.07-0.04-0.18-0.12-0.32-0.22c-0.14-0.1-0.26-0.18-0.37-0.23c-0.1-0.05-0.22-0.1-0.34-0.16s-0.26-0.08-0.4-0.08
			s-0.28,0.03-0.41,0.09c-0.1,0.04-0.18,0.14-0.23,0.29c-0.05,0.15-0.08,0.28-0.08,0.39c0,0.11,0,0.27,0.01,0.48
			c0.01,0.21,0.01,0.33,0.01,0.36c0,0.25,0,0.79-0.01,1.61c-0.01,0.82-0.02,1.46-0.03,1.9c0,0.09-0.01,0.23-0.02,0.41
			c-0.02,0.19-0.02,0.32-0.02,0.41s0.02,0.16,0.07,0.21c0.04,0.05,0.12,0.11,0.23,0.18c0.11,0.07,0.18,0.11,0.21,0.12
			c0.49,0.28,0.99,0.66,1.49,1.13c1.23,1.14,1.82,2.04,1.76,2.71c-0.04,0.47-0.3,0.79-0.76,0.95c-0.46,0.16-0.85,0.06-1.18-0.28
			c-0.13-0.13-0.3-0.35-0.49-0.64c-0.19-0.3-0.33-0.5-0.42-0.62c-0.42-0.46-0.85-0.84-1.31-1.13c-0.52,1.79-1.53,2.82-3.02,3.07
			c-0.79,0.13-1.6,0.1-2.43-0.11c-0.84-0.21-1.48-0.59-1.92-1.16c-0.52-0.7-0.69-1.44-0.5-2.23s0.63-1.43,1.34-1.9
			c0.64-0.44,1.38-0.75,2.22-0.91s1.66-0.16,2.45,0c0-0.01,0.03-1.15,0.09-3.4c0-0.01,0-0.15,0-0.4c0-0.25,0-0.41,0-0.47
			c0-0.42,0.04-0.84,0.13-1.27c0.04-0.16,0.09-0.31,0.14-0.43s0.12-0.25,0.19-0.37c-0.46-0.03-0.8-0.22-1.03-0.58
			s-0.23-0.75,0.01-1.18c0.16-0.25,0.41-0.41,0.75-0.48c0.33-0.07,0.61-0.08,0.83-0.03c0.22,0.04,0.53,0.12,0.93,0.22
			c0.4,0.09,0.71,0.16,0.93,0.22c0.22,0.06,0.55,0.17,0.99,0.34c0.44,0.17,0.79,0.33,1.06,0.49c0.27,0.16,0.52,0.37,0.77,0.63
			C509.9,71.17,510.05,71.47,510.09,71.79z M503.26,80.95c0.16-0.3,0.28-0.66,0.36-1.09c-0.76-0.18-1.58-0.12-2.47,0.18
			c-0.84,0.3-1.21,0.65-1.09,1.07c0.1,0.34,0.65,0.54,1.65,0.6C502.49,81.74,503.01,81.49,503.26,80.95z"/>
		<path d="M527.12,72.75c0.25,1.29,0.2,2.91-0.16,4.87c-0.43,2.13-1.02,3.71-1.78,4.74c-0.88,1.19-2.08,1.41-3.6,0.67
			c-0.39-0.18-0.75-0.38-1.09-0.6s-0.66-0.53-0.94-0.91c-0.29-0.39-0.39-0.76-0.3-1.13c0.1-0.37,0.33-0.63,0.69-0.77
			s0.69-0.11,1,0.1c0.13,0.09,0.31,0.25,0.53,0.47c0.22,0.22,0.39,0.37,0.51,0.45c0.49,0.34,0.9,0.52,1.22,0.53
			c0.16-0.15,0.36-0.45,0.58-0.91c0.27-0.56,0.53-1.37,0.8-2.42c0.25-1.14,0.39-2.18,0.42-3.11c0-1.11-0.12-1.82-0.36-2.13
			c-0.19-0.27-0.83-0.26-1.91,0.02c-0.27,0.06-0.47,0.11-0.6,0.16c-0.09,0.27-0.17,0.47-0.24,0.62c-0.09,0.28-0.24,0.71-0.45,1.29
			c-0.83,2.22-1.6,4.09-2.31,5.6c-0.04,0.07-0.13,0.24-0.25,0.51c-0.12,0.27-0.23,0.5-0.32,0.71c-0.1,0.21-0.22,0.45-0.38,0.72
			s-0.31,0.5-0.46,0.67c-0.15,0.17-0.31,0.32-0.5,0.44s-0.38,0.18-0.58,0.17c-0.2-0.02-0.41-0.12-0.63-0.31
			c-0.22-0.18-0.34-0.4-0.37-0.66c-0.02-0.26,0-0.47,0.07-0.63c0.07-0.16,0.18-0.4,0.34-0.71c0.47-0.82,0.89-1.62,1.25-2.4
			c0.71-1.54,1.44-3.34,2.18-5.4c-1.56,0.24-2.62-0.09-3.18-0.98c-0.25-0.4-0.27-0.82-0.06-1.26s0.57-0.63,1.08-0.57
			c0.22,0.03,0.41,0.1,0.56,0.22c0.03,0.01,0.09,0.08,0.19,0.2c0.1,0.12,0.17,0.18,0.21,0.18c0.19,0.04,0.64,0.01,1.33-0.11
			c0.16-0.03,0.42-0.1,0.76-0.2c0.01-0.06,0.05-0.17,0.1-0.32s0.09-0.28,0.12-0.37c0.21-0.62,0.39-1.16,0.53-1.62
			c0.25-0.83,0.38-1.27,0.4-1.31c0.06-0.33-0.02-0.71-0.24-1.16c-0.21-0.44-0.14-0.86,0.19-1.23c0.33-0.38,0.73-0.49,1.19-0.32
			c0.43,0.15,0.74,0.47,0.93,0.98c0.19,0.5,0.27,1,0.24,1.49c-0.01,0.25-0.06,0.54-0.13,0.87c-0.08,0.33-0.13,0.57-0.18,0.73
			c-0.04,0.16-0.14,0.46-0.29,0.89c-0.15,0.43-0.23,0.67-0.24,0.73c1.05-0.18,1.95-0.06,2.69,0.37
			C526.44,71,526.91,71.73,527.12,72.75z M534.28,76.44c0.12,1.2-0.23,1.97-1.04,2.31c-0.45,0.18-0.96,0.26-1.56,0.25
			c-0.25-0.01-0.54-0.01-0.87,0c-0.44,0.01-0.79-0.16-1.03-0.53c-0.25-0.37-0.26-0.76-0.03-1.16c0.1-0.18,0.26-0.32,0.47-0.41
			c0.21-0.1,0.38-0.15,0.52-0.17c0.14-0.01,0.37-0.02,0.68-0.01c0.31,0.01,0.5,0.01,0.58,0.01c-0.1-0.99-0.86-2.19-2.27-3.6
			c-0.09-0.09-0.26-0.22-0.5-0.39c-0.24-0.17-0.46-0.33-0.63-0.49c-0.18-0.16-0.3-0.32-0.38-0.5c-0.12-0.28-0.12-0.57-0.01-0.87
			s0.31-0.5,0.61-0.62c0.46-0.19,1.03-0.01,1.71,0.53c0.52,0.43,1.08,0.99,1.69,1.67C533.44,73.81,534.13,75.14,534.28,76.44z"/>
		<path d="M556.78,71.33c0.3,0.77,0.36,1.58,0.18,2.42c-0.19,0.89-0.58,1.61-1.16,2.16c-1.26,1.14-2.73,1.76-4.4,1.87
			c-2,0.1-3.3-0.07-3.89-0.51c-0.09-0.06-0.16-0.12-0.21-0.19c-0.05-0.07-0.1-0.14-0.14-0.23c-0.12-0.28-0.13-0.58-0.02-0.89
			c0.19-0.53,0.59-0.79,1.2-0.76c0.13,0.01,0.35,0.06,0.64,0.13c0.3,0.07,0.51,0.12,0.64,0.13c0.86,0.12,1.73,0.08,2.62-0.12
			c0.89-0.2,1.58-0.59,2.07-1.17c0.46-0.53,0.6-1.13,0.42-1.79c-0.18-0.66-0.61-1.08-1.29-1.26c-0.92-0.24-2.26,0.06-4.02,0.89
			c-0.1,0.04-0.19,0.09-0.27,0.13c-1.81,0.86-3.26,1.52-4.36,1.98l2.16,4.91c0.07,0.15,0.2,0.41,0.37,0.79
			c0.17,0.38,0.3,0.67,0.39,0.89s0.2,0.49,0.32,0.81c0.13,0.33,0.23,0.63,0.3,0.92c0.07,0.29,0.13,0.57,0.18,0.86
			c0.06,0.52-0.14,0.9-0.61,1.13c-0.47,0.24-0.89,0.18-1.28-0.16c-0.09-0.07-0.16-0.17-0.22-0.28c-0.06-0.11-0.11-0.25-0.14-0.42
			c-0.04-0.17-0.06-0.29-0.08-0.34c-0.18-0.61-0.36-1.1-0.56-1.49c-0.39-0.86-0.92-2.1-1.6-3.74c-0.8-1.87-1.26-2.9-1.38-3.09
			l-0.51,0.18c-0.3,0.12-0.49,0.19-0.58,0.22c-0.09,0.03-0.26,0.08-0.51,0.16s-0.45,0.13-0.6,0.17c-0.15,0.04-0.33,0.07-0.53,0.09
			c-0.21,0.02-0.4,0.03-0.58,0.01c-0.58-0.03-1.12-0.17-1.61-0.41c-0.5-0.25-0.74-0.61-0.72-1.1c0.03-0.52,0.27-0.86,0.71-1.02
			c0.12-0.04,0.24-0.07,0.38-0.07s0.23,0.01,0.28,0.02c0.05,0.01,0.16,0.05,0.33,0.11s0.28,0.1,0.32,0.11
			c0.22,0.04,0.4,0.07,0.53,0.08c0.13,0.01,0.32-0.02,0.57-0.08c0.25-0.06,0.44-0.12,0.59-0.17c0.15-0.05,0.33-0.12,0.56-0.2
			c0.22-0.08,0.39-0.15,0.51-0.21c-0.16-0.43-0.29-0.76-0.37-1c-0.08-0.24-0.17-0.55-0.26-0.93s-0.12-0.75-0.1-1.08
			c0.02-0.33,0.1-0.66,0.23-0.99c0.3-0.67,0.8-1.08,1.5-1.25s1.35-0.04,1.95,0.38c-0.04-0.1-0.13-0.28-0.24-0.52
			c-0.12-0.25-0.22-0.46-0.31-0.63c-0.24-0.49-0.36-0.92-0.36-1.29c0-0.18,0.06-0.36,0.17-0.53s0.29-0.31,0.52-0.4
			c0.28-0.12,0.6-0.06,0.96,0.18c0.25,0.18,0.58,0.67,0.98,1.49c0.21,0.43,0.36,0.75,0.45,0.96c0.74,1.82,0.58,2.96-0.47,3.4
			c-0.27,0.12-0.62,0.06-1.04-0.18c-0.43-0.24-0.84-0.47-1.22-0.71c-0.38-0.24-0.66-0.3-0.82-0.2c-0.22,0.16-0.27,0.45-0.13,0.87
			c0.07,0.21,0.15,0.4,0.22,0.59s0.17,0.39,0.28,0.61c0.11,0.22,0.18,0.38,0.21,0.47c1.29-0.58,2.47-1.11,3.54-1.6
			c0.13-0.06,0.4-0.19,0.79-0.39s0.69-0.34,0.89-0.43s0.47-0.2,0.8-0.32c0.33-0.13,0.63-0.23,0.9-0.32c1.23-0.33,2.42-0.29,3.58,0.1
			C555.56,69.46,556.35,70.21,556.78,71.33z"/>
		<path d="M576.55,80.2c0.22,0.15,0.37,0.34,0.46,0.58c0.08,0.24,0.08,0.46,0,0.67c-0.08,0.21-0.2,0.4-0.36,0.57
			c-0.16,0.17-0.36,0.26-0.6,0.28c-0.25,0.02-0.49-0.04-0.72-0.18c-1.19-0.76-2.61-1.39-4.27-1.91c-0.09,0.9-0.37,1.7-0.84,2.38
			c-0.45,0.62-1.1,1.08-1.98,1.38c-0.74,0.24-1.55,0.27-2.42,0.1c-0.88-0.17-1.58-0.55-2.11-1.14c-0.58-0.65-0.83-1.39-0.75-2.21
			c0.08-0.82,0.46-1.51,1.12-2.06c0.58-0.5,1.3-0.85,2.17-1.04c0.87-0.19,1.74-0.25,2.61-0.18v-2.27c-0.52,0.12-0.9,0.2-1.16,0.25
			c-0.25,0.04-0.6,0.08-1.03,0.11c-0.44,0.03-0.82-0.01-1.16-0.13c-0.33-0.12-0.65-0.31-0.94-0.58c-0.27-0.24-0.46-0.56-0.57-0.98
			s-0.08-0.79,0.09-1.12c0.17-0.33,0.49-0.5,0.95-0.5c0.44,0,0.73,0.13,0.87,0.38c0.01,0.03,0.04,0.09,0.08,0.19
			s0.07,0.19,0.11,0.27s0.06,0.12,0.08,0.12c0.1,0.06,0.23,0.09,0.39,0.1c0.16,0.01,0.28,0,0.38-0.01s0.25-0.04,0.45-0.08
			c0.2-0.04,0.33-0.06,0.39-0.08c0.1-0.01,0.26-0.05,0.46-0.11s0.34-0.1,0.43-0.11c0.1-0.01,0.17-0.07,0.2-0.17
			c0.03-0.1,0.04-0.36,0.04-0.79c-0.01-0.47-0.04-1.19-0.07-2.13c-1.96,0.24-3.03,0.37-3.22,0.4c-0.56,0.02-1.13-0.08-1.69-0.28
			s-0.98-0.51-1.25-0.92c-0.27-0.43-0.24-0.85,0.09-1.27c0.34-0.44,0.74-0.58,1.2-0.42c0.13,0.04,0.33,0.15,0.6,0.32
			c0.27,0.17,0.5,0.26,0.69,0.28c0.12,0,0.57-0.04,1.36-0.11c0.89-0.09,1.5-0.17,1.85-0.24c0.07-0.01,0.13-0.03,0.18-0.03
			c0.04-0.01,0.08-0.01,0.11-0.02c0.03-0.01,0.05-0.03,0.06-0.06c0.01-0.03,0.01-0.05,0.02-0.07c0.01-0.01,0.01-0.06,0.01-0.14
			c0-0.08,0-0.14,0-0.19c0-0.71-0.08-1.16-0.24-1.36c-0.34-0.4-0.5-0.74-0.47-1.02c0.06-0.58,0.36-0.9,0.89-0.98
			c0.49-0.07,0.91,0.09,1.27,0.49c0.58,0.65,0.85,1.66,0.82,3.02c0.13-0.01,0.68-0.12,1.65-0.3c0.96-0.18,1.69-0.29,2.18-0.3
			c0.55-0.03,0.92,0.22,1.11,0.76c0.16,0.5,0.03,0.93-0.4,1.29c-0.09,0.07-0.21,0.13-0.37,0.18c-0.16,0.04-0.29,0.08-0.39,0.1
			c-0.1,0.02-0.25,0.04-0.45,0.06c-0.24,0.03-0.36,0.04-0.38,0.04l-1.96,0.33l-1,0.13v2.85c1.22-0.21,2.13-0.39,2.74-0.53
			c0.44-0.1,0.82-0.14,1.13-0.11c0.41,0.03,0.72,0.2,0.91,0.51c0.18,0.28,0.22,0.59,0.12,0.92c-0.1,0.33-0.29,0.58-0.59,0.72
			c-0.1,0.04-0.23,0.08-0.37,0.11c-0.14,0.03-0.3,0.05-0.48,0.07c-0.18,0.02-0.3,0.03-0.38,0.04c-0.25,0.03-0.73,0.11-1.42,0.24
			c-0.16,0.03-0.4,0.08-0.7,0.14c-0.3,0.07-0.54,0.12-0.7,0.14c-0.07,0.01-0.13,0.04-0.18,0.07c-0.04,0.03-0.07,0.06-0.08,0.09
			c-0.01,0.03-0.01,0.08,0,0.16c0.01,0.07,0.01,0.13,0.01,0.18c0,1.54-0.01,2.39-0.02,2.56c0,0.07,0.01,0.13,0.02,0.17
			s0.03,0.06,0.04,0.08s0.06,0.03,0.14,0.04c0.08,0.02,0.14,0.03,0.19,0.04C573.51,78.54,575.2,79.29,576.55,80.2z M568.68,80.66
			c0.13-0.56,0.17-0.87,0.11-0.93c-0.03-0.03-0.1-0.04-0.2-0.04c-0.39-0.03-0.9,0.01-1.53,0.11c-1.13,0.16-1.75,0.53-1.87,1.09
			c-0.09,0.4,0.14,0.69,0.69,0.87c0.44,0.15,0.92,0.18,1.42,0.09C568.05,81.72,568.51,81.33,568.68,80.66z"/>
		<path d="M588.95,77.33c-0.27,0-0.5-0.09-0.69-0.28c-0.19-0.19-0.29-0.41-0.29-0.68c0-0.27,0.1-0.5,0.29-0.69
			c0.19-0.19,0.42-0.29,0.69-0.29h4.07c0.27,0,0.49,0.1,0.68,0.29c0.19,0.19,0.28,0.42,0.28,0.69c0,0.27-0.09,0.49-0.28,0.68
			s-0.41,0.28-0.68,0.28H588.95z"/>
	</g>
	<g>
		<defs>
			<rect id="SVGID_1_" x="608.34" width="286.97" height="89.48"/>
		</defs>
		<clipPath id="SVGID_2_">
			<use xlink:href="#SVGID_1_"  style="overflow:visible;"/>
		</clipPath>
		<g class="st0">
			<path class="st1" d="M543.12,55.65h-0.65v-2.61h-1.19v2.61h-2.17v2.17h-2.09v1.3h0.65v0.72h-0.65v1.3h0.65v0.72h-0.65v1.3h0.65
				v0.72h-0.65v1.3h0.65v0.72h-0.65v1.3h0.65v0.72h-0.65v1.3h0.65v0.05h-1.22c-0.36-1.01-1.32-1.73-2.45-1.73
				c-1.13,0-2.09,0.72-2.45,1.73h-1.5v1.16h0.38v8.1l-3.03-2.1l-3.96,2.74v0.64c-0.38-2.05-0.69-4.05-0.91-5.86
				c-0.2-1.59-0.34-3.04-0.44-4.25c-0.03-0.33-0.05-0.63-0.07-0.92h4.09l-4.16-3.52c0-0.82,0-1.77,0-2.74h4.16l-4.16-3.52
				c0-0.52,0-1,0-1.4c0-0.4,0-0.72,0-0.94c0-0.1,0-0.18,0-0.24l1.9-2.62h-8.59l1.9,2.62c0,0.32,0,1.31,0,2.59l-4.16,3.52h4.16
				c0,0.97,0,1.93,0,2.74l-4.16,3.52h4.08c-0.04,0.69-0.11,1.49-0.19,2.38c-0.27,2.86-0.78,6.61-1.57,10.41l-0.58-0.47v-1.76
				l0.45,0.37v-0.74l-3.12-2.54l-3.12,2.54v0.74l0.45-0.37v1.76l-0.53,0.43v-9.52h-1.08v-1.98h-3.36v1.98h-3.95V61.66h-1.04v-1.55
				h1.04v-1.04h-6.47v1.04h1.04v1.55h-1.04v13.72h-3.62V63.73V61.4v-1.81v-0.78v-0.26h-6.73v1.04h1.55v1.81h-1.55v13.97v0.16
				l-2.78-1.41l-2.72,1.38v-4.98h-1.2v-2.2h-3.74v2.2h-4.84v3.3h-1.54v1.54h1.54v1.76h-1.17l-0.82-0.67l-3.11,2.54v0.3h-0.95v6.18
				h1.4h2.09h2.56h0.68h7.98h1.11h2.72h2.78h1.04h5.69h3.62h6.07h0.4h6.69h1.7h0.53h2.23h0.87h1.55h0.68h0.93h1.3v-1.79l0.45,0.37
				V83.3l-0.23-0.19l2.3-1.75h0.09l2.65,2.01v2.1h1.16h1.61h2.39h3.03h2.14h4.45h0.54h6.84v-1.3h-0.65v-0.72h0.65v-1.3h-0.65v-0.72
				h0.65v-1.3h-0.65v-0.72h0.65v-1.3h-0.65v-0.72h0.65v-1.3h-0.65v-0.72h0.65v-1.3h-0.65V73.3h0.65V72h-0.65v-0.72h0.65v-1.3h-0.65
				v-0.72h0.65v-1.3h-0.65v-0.72h0.65v-1.3h-0.65V65.2h0.65v-1.3h-0.65v-0.72h0.65v-1.3h-0.65v-0.72h0.65v-1.3h-0.65v-0.72h0.65
				v-1.3h-1.28V55.65z M466.87,79.51v0.91v0.23h-1.02v-1.13H466.87z M466.87,83.91h-1.02v-1.13h1.02V83.91z M472.2,83.71h-1.02v-1.1
				h1.02V83.71z M472.2,80.21h-1.02v-1.1h1.02V80.21z M472.2,76.71h-1.02v-1.1h1.02V76.71z M472.2,73.2h-1.02v-1.1h1.02V73.2z
				 M474.97,83.71h-1.02v-1.1h1.02V83.71z M474.97,80.21h-1.02v-1.1h1.02V80.21z M474.97,76.71h-1.02v-1.1h1.02V76.71z M474.97,73.2
				h-1.02v-1.1h1.02V73.2z M480.17,80.53h-1.02v-1.47h1.02V80.53z M481.41,84.26h-1.02v-1.47h1.02V84.26z M482.65,80.53h-1.02v-1.47
				h1.02V80.53z M488.48,63.14h0.62v1.5h-0.62V63.14z M488.48,66.94h0.62v1.5h-0.62V66.94z M488.48,70.74h0.62v1.5h-0.62V70.74z
				 M486.78,63.14h0.62v1.5h-0.62V63.14z M486.78,66.94h0.62v1.5h-0.62V66.94z M486.78,70.74h0.62v1.5h-0.62V70.74z M485.22,63.14
				h0.62v1.5h-0.62V63.14z M485.22,66.94h0.62v1.5h-0.62V66.94z M485.22,70.74h0.62v1.5h-0.62V70.74z M485.22,74.53h0.62v1.5h-0.62
				V74.53z M486.66,83.37h-1.13v-0.9h1.13V83.37z M486.66,81.37h-1.13v-0.9h1.13V81.37z M486.66,79.37h-1.13v-0.9h1.13V79.37z
				 M486.78,74.53h0.62v1.5h-0.62V74.53z M488.39,83.37h-1.13v-0.9h1.13V83.37z M488.39,81.37h-1.13v-0.9h1.13V81.37z M488.39,79.37
				h-1.13v-0.9h1.13V79.37z M488.48,74.53h0.62v1.5h-0.62V74.53z M490.12,83.37h-1.13v-0.9h1.13V83.37z M490.12,81.37h-1.13v-0.9
				h1.13V81.37z M490.12,79.37h-1.13v-0.9h1.13V79.37z M491.85,83.37h-1.13v-0.9h1.13V83.37z M491.85,81.37h-1.13v-0.9h1.13V81.37z
				 M491.85,79.37h-1.13v-0.9h1.13V79.37z M493.57,83.37h-1.13v-0.9h1.13V83.37z M493.57,81.37h-1.13v-0.9h1.13V81.37z
				 M493.57,79.37h-1.13v-0.9h1.13V79.37z M498.73,80.92v0.45h-1.09v-0.9h1.13v0.45H498.73z M497.64,79.37v-0.9h1.09v0.87h0.04v0.03
				H497.64z M497.47,63.14h0.62v1.5h-0.62V63.14z M497.47,66.94h0.62v1.5h-0.62V66.94z M497.47,70.74h0.62v1.5h-0.62V70.74z
				 M495.91,63.14h0.62v1.5h-0.62V63.14z M495.91,66.94h0.62v1.5h-0.62V66.94z M495.91,70.74h0.62v1.5h-0.62V70.74z M495.91,74.53
				h0.62v1.5h-0.62V74.53z M495.3,83.37h-1.13v-0.9h1.13V83.37z M495.3,81.37h-1.13v-0.9h1.13V81.37z M495.3,79.37h-1.13v-0.9h1.13
				V79.37z M497.03,83.37h-1.13v-0.9h1.13V83.37z M497.03,81.37h-1.13v-0.9h1.13V81.37z M497.03,79.37h-1.13v-0.9h1.13V79.37z
				 M497.47,74.53h0.62v1.5h-0.62V74.53z M498.76,83.37h-1.13v-0.9h1.13V83.37z M503.51,83.89h-0.92V82.9h0.92V83.89z M503.51,80.74
				h-0.92v-0.99h0.92V80.74z M503.51,77.59h-0.92V76.6h0.92V77.59z M503.51,74.44h-0.92v-0.99h0.92V74.44z M506,83.89h-0.92V82.9
				H506V83.89z M506,80.74h-0.92v-0.99H506V80.74z M506,77.59h-0.92V76.6H506V77.59z M506,74.44h-0.92v-0.99H506V74.44z
				 M511.24,84.48h-1.02v-1.02h1.02V84.48z M512.6,80.3h-1.02v-1.02h1.02V80.3z M513.95,84.48h-1.02v-1.02h1.02V84.48z
				 M522.19,75.82c0.11,0.78,0.24,1.59,0.37,2.41l-2.68-2.27h2.31V75.82z M520.81,56.63l-1.28,0.9l-1.28-0.9H520.81z M518.51,56.01
				l1.02-0.66l1.02,0.66H518.51z M519.91,70.68l1.55-1.62c0.03,0.49,0.07,1.03,0.13,1.62H519.91z M521.62,71.04
				c0.01,0.07,0.01,0.14,0.02,0.21c0.05,0.55,0.11,1.12,0.18,1.73l-1.86-1.93H521.62z M520.92,59.51l-1.38,0.98l-1.39-0.98H520.92z
				 M518.2,58.89l1.33-0.94l1.33,0.94H518.2z M521.37,59.6c0,0.69,0,1.44,0,2.19l-1.55-1.1L521.37,59.6z M520.97,61.91h-2.88
				l1.44-1.02L520.97,61.91z M521.05,62.54l-1.52,1.07l-1.52-1.07H521.05z M521.37,62.72c0,0.77,0,1.51,0,2.19l-1.55-1.09
				L521.37,62.72z M521.13,65.15h-3.2l1.6-1.13L521.13,65.15z M520.98,65.77l-1.44,1.02l-1.44-1.02H520.98z M520.92,68.18h-2.77
				l1.38-0.98L520.92,68.18z M521.25,68.8l-1.72,1.79l-1.72-1.79H521.25z M519.82,67l1.55-1.09c0,0.39,0,0.74,0,1.02
				c0,0.32,0.01,0.72,0.03,1.2L519.82,67z M521.37,58.84l-1.55-1.09l1.55-1.1C521.37,57.06,521.37,57.86,521.37,58.84z
				 M519.25,57.74l-1.5,1.06c0-0.44,0-0.84,0-1.19c0-0.39,0-0.71,0-0.94L519.25,57.74z M519.25,60.69l-1.5,1.06c0-0.37,0-0.74,0-1.1
				c0-0.35,0-0.69,0-1.02L519.25,60.69z M519.25,63.82l-1.5,1.06c0-0.66,0-1.38,0-2.13L519.25,63.82z M519.25,67l-1.53,1.09
				c0.02-0.46,0.03-0.85,0.03-1.16c0-0.27,0-0.61,0-0.99L519.25,67z M519.16,70.68h-1.63c0.03-0.31,0.05-0.61,0.07-0.9
				c0.02-0.23,0.03-0.46,0.05-0.67L519.16,70.68z M519.11,71.04l-1.8,1.88c0.07-0.66,0.14-1.29,0.2-1.88H519.11z M519.54,71.06
				l2.35,2.45c0.01,0.05,0.01,0.1,0.02,0.16l-2.28,1.93h-0.17l-2.24-1.89c0.01-0.08,0.02-0.16,0.03-0.24L519.54,71.06z M522.16,75.6
				h-2.03l1.82-1.54C522.01,74.56,522.08,75.07,522.16,75.6z M524.43,68.18h-2.45c0-0.02,0-0.05,0-0.07
				c-0.02-0.47-0.03-0.87-0.03-1.19c0-0.24,0-0.52,0-0.85L524.43,68.18z M524.43,61.91h-2.48c0-0.42,0-0.85,0-1.26
				c0-0.29,0-0.57,0-0.85L524.43,61.91z M522.67,54.43l-1.15,1.58h-0.34l-1.33-0.85l1.13-0.72H522.67z M520.36,54.43l-0.82,0.53
				l-0.82-0.53H520.36z M516.45,54.43h1.65l1.13,0.72l-1.33,0.85h-0.3L516.45,54.43z M514.68,61.91l2.48-2.1c0,0.67,0,1.39,0,2.1
				H514.68z M514.68,68.18l2.48-2.1c0,0.32,0,0.61,0,0.85c0,0.31-0.01,0.71-0.03,1.19c0,0.02,0,0.05,0,0.07H514.68z M517.16,74.09
				l1.78,1.5h-1.98C517.03,75.08,517.1,74.58,517.16,74.09z M516.91,75.96h2.28l-2.63,2.22C516.69,77.42,516.8,76.68,516.91,75.96z
				 M516.94,82.9l-1.1-0.9c0.04-0.21,0.09-0.42,0.14-0.64h2.98L516.94,82.9z M516.04,81c0.14-0.68,0.26-1.36,0.38-2.04l2.69,2.04
				H516.04z M519.54,80.91l-3.01-2.28l3-2.53l3,2.53L519.54,80.91z M522.69,78.93c0.12,0.68,0.25,1.37,0.39,2.06h-3.1L522.69,78.93z
				 M520.14,81.36h2.92l-0.82,0.45v1.15L520.14,81.36z M525.54,83.9h-0.79v-1.06h0.79V83.9z M526.64,80.7h-0.79v-1.06h0.79V80.7z
				 M527.8,83.9H527v-1.06h0.79V83.9z M528.96,80.7h-0.79v-1.06h0.79V80.7z M530.06,83.9h-0.8v-1.06h0.8V83.9z M531.51,70.92h0.72
				v1.09h-0.72V70.92z M531.51,73.43h0.72v1.09h-0.72V73.43z M531.51,75.93h0.72v1.09h-0.72V75.93z M531.51,78.44h0.72v1.09h-0.72
				V78.44z M532.23,80.94v0.69l-0.72-0.39v-0.29H532.23z M534.35,84.53h-0.72v-1.09h0.72V84.53z M534.35,82.02h-0.72v-1.09h0.72
				V82.02z M534.35,79.52h-0.72v-1.09h0.72V79.52z M534.35,77.02h-0.72v-1.09h0.72V77.02z M534.35,74.51h-0.72v-1.09h0.72V74.51z
				 M534.35,72.01h-0.72v-1.09h0.72V72.01z M534.35,69.14h-0.72v-0.7h0.72V69.14z M536.47,84.53h-0.72v-1.09h0.72V84.53z
				 M536.47,82.02h-0.72v-1.09h0.72V82.02z M536.47,79.52h-0.72v-1.09h0.72V79.52z M536.47,77.02h-0.72v-1.09h0.72V77.02z
				 M536.47,74.51h-0.72v-1.09h0.72V74.51z M536.47,72.01h-0.72v-1.09h0.72V72.01z M537.66,84.16h-0.11v-0.72h0.11V84.16z
				 M537.66,82.14h-0.11v-0.72h0.11V82.14z M537.66,80.11h-0.11v-0.72h0.11V80.11z M537.66,78.08h-0.11v-0.72h0.11V78.08z
				 M537.66,76.06h-0.11v-0.72h0.11V76.06z M537.66,74.03h-0.11V73.3h0.11V74.03z M537.66,72h-0.11v-0.72h0.11V72z M541.27,83.03
				h-1.51v-1.21h1.51V83.03z M541.27,79.41h-1.51V78.2h1.51V79.41z M541.27,75.79h-1.51v-1.21h1.51V75.79z M541.27,72.17h-1.51
				v-1.21h1.51V72.17z M541.27,68.55h-1.51v-1.21h1.51V68.55z M541.27,64.93h-1.51v-1.21h1.51V64.93z M541.27,61.31h-1.51V60.1h1.51
				V61.31z"/>
			<polygon class="st1" points="504.2,14.6 503.58,14.6 503.58,14.91 504.2,14.91 504.51,14.91 504.51,14.6 504.51,13.98 
				504.2,13.98 			"/>
			<path class="st1" d="M827.44,79.29V76.1l-5.16-1.76v1.53l-4.48-1.53v1.53l-4.25-1.45V63.57l-1.71-4.65v-3.09v-2.27v-1.08h-1.31
				v1.08h-3.15v-1.08h-1.31v1.08v2.27v3.09l-1.71,4.65v10.93h-5.09c0.45-12.64,0.18-23.37-6.36-29.48
				c-5.89,5.51-6.69,14.79-6.46,25.82h-3.24v-4.41h-6.78v-9.4c-0.99-0.8-2.98-1.59-2.98-1.59v-4.57c-6.36,0.8-9.54,4.77-9.54,6.76
				c0,1.6,0,11.94,0,19.55h-3.03v0.11h-0.09V75.8h1.3v-1.74h-1.3v-1.49h1.3v-1.73h-1.3v-1.49h1.3v-1.73h-1.3v-1.49h1.3v-1.73h-1.3
				v-1.49h1.3v-1.73h-3.67v-4.96h-5.18v4.96h-3.67v1.73h1.3v1.49h-1.3v1.73h1.3v1.49h-1.3v1.73h1.3v1.49h-1.3v1.73h1.3v1.49h-0.72
				v-0.95h-10.39v1.37h0.59v6.08h-3.04V57.85V52.5v-6.24h-1.78v7.29l-7.72,4.59V69.1h-3.16l-0.31-1.51
				c0.28-0.21,0.47-0.55,0.47-0.94c0-0.65-0.53-1.18-1.18-1.18c-0.65,0-1.18,0.53-1.18,1.18c0,0.38,0.18,0.72,0.47,0.94l-0.31,1.51
				h-7.08v1.76h1.18v3.43h-1.18v1.76h1.18v0.19h-6.53c-0.65-3.46-0.82-5.83-0.82-5.83h1.16l0.41-4.78h-2.65
				c-0.66-5.29-0.62-9.79-0.62-9.79h0.79V52.8h-1.24v-4.09v-2.28h-0.91v-6.98h-0.58v6.98h-0.91v2.28v4.09h-1.24v3.05h0.79
				c0,0,0.04,4.5-0.62,9.79h-2.65l0.41,4.78h1.16c0,0-0.27,3.94-1.51,9.07v-3.54h-5.84v-9.61l-1.35-1.13v-1.35l-0.9-0.75
				c0-0.3-0.53-2.02-2.4-2.02c-1.88,0-2.4,1.72-2.4,2.02l-0.9,0.75v1.35l-1.35,1.13v11.44l-1.63-1.33l-1.8,1.47l-0.57-17.32h0.89
				l1.34-6.54h-2.44l-0.66-20.31h0.68l0.94-4.56H681l-0.27-8.26h-0.93v-5.43h0.41v-1.58h-0.41v-2.49h-0.98v2.49h-0.41v1.58h0.41
				v5.43h-0.93l-0.27,8.26h-1.76l0.94,4.56h0.68l-0.66,20.31h-2.44l1.34,6.54h0.89l-0.52,15.85h-3.9v1.18h-4.03v-4.71h-6.08v4.71
				h-3.79v-4.71h-5.34V71.5l-3.82-4.46l-3.72,4.34l-3.72-4.34l-3.82,4.46v8.36h-1.42V64.01h-10.39V42.9h-2.39v-1.26h2.39v-1.01
				h-11.06v1.01h2.39v1.26h-2.39v38.73l-0.63-0.51v-1.76l0.45,0.37v-0.74l-3.12-2.54l-3.12,2.54v0.74l0.45-0.37v1.76l-2.36,1.92
				V61.75l-5.8-1.98l-3.97,1.68v8.81h-1.72l-1.77-2.03l-1.77,2.03h-1.24V52.17l-3.7-1.29l-3.7,1.29v3.22h-2.57h-2.57v-3.22
				l-3.7-1.29l-3.7,1.29V76.8h-1.73V66.53l-7.06-3.69v4.01h-0.83V46.42h-1.5v-2.63h-1.3v-1.96h-1.6V35.3h-0.8v6.53h-1.6v1.96h-1.3
				v2.63h-1.5v16.82c-0.14-0.32-0.3-0.63-0.46-0.91h-3.65c-1.98,3.35-1.98,9.44-1.98,11.27c0,1.83,0,11.88,0,11.88h6.1h1.52h7.61
				h0.46h9.62h0.51h17.93h1.51h6.49h1.03h8.74v-1.69l0.13-0.1v1.79H609h2.23h0.87h2.23h0.63h1.6h9.26h0.19h5.3h5.1h1.42h0.94h12.4
				h1.76h4.33h1.01h13.9h0.77h2.83h0.49h1.28l1.77-4.54l1.77,4.54h0.66h1.11h3.18h1.04h7.61h0.65h4.04h1.8h2.26
				c0,0,0.54-5.11,2.61-5.11c1.31,0,2,2.05,2.34,3.55v1.56h0.27h4.05h4.04h2.74h6.22h1.63h0.51h2.15h7.36h3.04h2.89h6.33h11.3h1.21
				h1.81h1.26h9.24h2.02h5.33h1.45h1.35h2.43h9.47h2.39h5.51h0.3h8.66h0.23h11.95h1.94h1.55v-6.18H827.44z M681.18,30.06h0.43v0.85
				h-0.43V30.06z M677.41,30.91h-0.42v-0.85h0.42V30.91z M550.62,67.77h0.61v1.33h-0.61V67.77z M550.62,70.85h0.61v1.33h-0.61V70.85
				z M550.62,73.92h0.61v1.33h-0.61V73.92z M550.62,77h0.61v1.33h-0.61V77z M550.62,80.08h0.61v1.33h-0.61V80.08z M547.26,84.49
				h-0.69v-1.33h0.69V84.49z M547.26,81.41h-0.69v-1.33h0.69V81.41z M547.26,78.34h-0.69V77h0.69V78.34z M547.26,75.26h-0.69v-1.33
				h0.69V75.26z M547.26,72.18h-0.69v-1.33h0.69V72.18z M547.26,69.11h-0.69v-1.33h0.69V69.11z M549.28,84.49h-0.69v-1.33h0.69
				V84.49z M549.28,81.41h-0.69v-1.33h0.69V81.41z M549.28,78.34h-0.69V77h0.69V78.34z M549.28,75.26h-0.69v-1.33h0.69V75.26z
				 M549.28,72.18h-0.69v-1.33h0.69V72.18z M549.28,69.11h-0.69v-1.33h0.69V69.11z M549.28,66.03h-0.69v-1.33h0.69V66.03z
				 M550.62,84.49v-1.33h0.61v1.33H550.62z M553.97,83.37h-0.84v-2.28h0.84V83.37z M553.97,78.11h-0.84v-2.28h0.84V78.11z
				 M553.97,72.85h-0.84v-2.28h0.84V72.85z M553.97,67.59h-0.84V65.3h0.84V67.59z M553.97,62.33h-0.84v-2.28h0.84V62.33z
				 M553.97,57.06h-0.84v-2.28h0.84V57.06z M553.97,51.8h-0.84v-2.28h0.84V51.8z M556.44,83.37h-0.84v-2.28h0.84V83.37z
				 M556.44,78.11h-0.84v-2.28h0.84V78.11z M556.44,72.85h-0.84v-2.28h0.84V72.85z M556.44,67.59h-0.84V65.3h0.84V67.59z
				 M556.44,62.33h-0.84v-2.28h0.84V62.33z M556.44,57.06h-0.84v-2.28h0.84V57.06z M556.44,51.8h-0.84v-2.28h0.84V51.8z
				 M558.91,83.37h-0.84v-2.28h0.84V83.37z M558.91,78.11h-0.84v-2.28h0.84V78.11z M558.91,72.85h-0.84v-2.28h0.84V72.85z
				 M558.91,67.59h-0.84V65.3h0.84V67.59z M558.91,62.33h-0.84v-2.28h0.84V62.33z M558.91,57.06h-0.84v-2.28h0.84V57.06z
				 M558.91,51.8h-0.84v-2.28h0.84V51.8z M562.37,83.92h-0.86v-1.72h0.86V83.92z M562.37,79.96h-0.86v-1.72h0.86V79.96z M562.37,76
				h-0.86v-1.72h0.86V76z M562.37,72.04h-0.86v-1.72h0.86V72.04z M564.92,83.92h-0.86v-1.72h0.86V83.92z M564.92,79.96h-0.86v-1.72
				h0.86V79.96z M564.92,76h-0.86v-1.72h0.86V76z M564.92,72.04h-0.86v-1.72h0.86V72.04z M567.46,83.92h-0.86v-1.72h0.86V83.92z
				 M567.46,79.96h-0.86v-1.72h0.86V79.96z M567.46,76h-0.86v-1.72h0.86V76z M567.46,72.04h-0.86v-1.72h0.86V72.04z M574.93,82.78
				h-1.17v-2.34h1.17V82.78z M574.93,77.44h-1.17V75.1h1.17V77.44z M574.93,72.1h-1.17v-2.33h1.17V72.1z M574.93,66.76h-1.17v-2.33
				h1.17V66.76z M574.93,61.42h-1.17v-2.34h1.17V61.42z M575.38,55.02h-2.49v-1.65l1.25-0.43l1.25,0.43V55.02z M578.83,82.78h-1.17
				v-2.34h1.17V82.78z M578.83,77.44h-1.17V75.1h1.17V77.44z M578.83,72.1h-1.17v-2.33h1.17V72.1z M578.83,66.76h-1.17v-2.33h1.17
				V66.76z M578.83,61.42h-1.17v-2.34h1.17V61.42z M583.15,82.78h-1.17v-2.34h1.17V82.78z M583.15,77.44h-1.17V75.1h1.17V77.44z
				 M583.15,72.1h-1.17v-2.33h1.17V72.1z M583.15,66.76h-1.17v-2.33h1.17V66.76z M583.15,61.42h-1.17v-2.34h1.17V61.42z
				 M587.05,82.78h-1.17v-2.34h1.17V82.78z M587.05,77.44h-1.17V75.1h1.17V77.44z M587.05,72.1h-1.17v-2.33h1.17V72.1z
				 M587.05,66.76h-1.17v-2.33h1.17V66.76z M587.05,61.42h-1.17v-2.34h1.17V61.42z M587.93,55.02h-2.49v-1.65l1.25-0.43l1.25,0.43
				V55.02z M591.13,82.83h-0.68v-1.36h0.68V82.83z M591.13,79.78h-0.68v-1.35h0.68V79.78z M591.13,76.73h-0.68v-1.36h0.68V76.73z
				 M591.13,73.68h-0.68v-1.36h0.68V73.68z M593.72,82.83h-0.68v-1.36h0.68V82.83z M593.72,79.78h-0.68v-1.35h0.68V79.78z
				 M593.72,76.73h-0.68v-1.36h0.68V76.73z M593.72,73.68h-0.68v-1.36h0.68V73.68z M596.32,82.83h-0.68v-1.36h0.68V82.83z
				 M596.32,79.78h-0.68v-1.35h0.68V79.78z M596.32,76.73h-0.68v-1.36h0.68V76.73z M596.32,73.68h-0.68v-1.36h0.68V73.68z
				 M602.4,82.93h-0.61v-1.57l0.61,0.02V82.93z M602.4,79.49l-0.61-0.04v-1.57l0.61,0.06V79.49z M602.4,76.05l-0.61-0.09V74.4
				l0.61,0.11V76.05z M602.4,72.61l-0.61-0.13v-1.57l0.61,0.15V72.61z M602.4,69.17L601.79,69v-1.57l0.61,0.19V69.17z M602.4,65.73
				l-0.61-0.22v-1.57l0.61,0.24V65.73z M604.1,82.93h-0.56v-1.51l0.56,0.02V82.93z M604.1,79.61l-0.56-0.04v-1.51l0.56,0.06V79.61z
				 M604.1,76.3l-0.56-0.08V74.7l0.56,0.1V76.3z M604.1,72.98l-0.56-0.12v-1.51l0.56,0.14V72.98z M604.1,69.66l-0.56-0.16v-1.51
				l0.56,0.18V69.66z M604.1,66.34l-0.56-0.2v-1.51l0.56,0.22V66.34z M605.68,82.93h-0.53v-1.46l0.53,0.02V82.93z M605.68,79.73
				l-0.53-0.04v-1.46l0.53,0.05V79.73z M605.68,76.52l-0.53-0.08v-1.46l0.53,0.09V76.52z M605.68,73.32l-0.53-0.11v-1.46l0.53,0.13
				V73.32z M605.68,70.11l-0.53-0.15v-1.46l0.53,0.17V70.11z M605.68,66.91l-0.53-0.19v-1.46l0.53,0.21V66.91z M610.81,84.48h-1.02
				v-1.02h1.02V84.48z M612.17,80.3h-1.02v-1.02h1.02V80.3z M613.53,84.48h-1.02v-1.02h1.02V84.48z M618.27,82.22h-0.9v-2.46h0.9
				V82.22z M618.27,76.56h-0.9V74.1h0.9V76.56z M618.27,70.89h-0.9v-2.46h0.9V70.89z M618.27,65.22h-0.9v-2.46h0.9V65.22z
				 M618.27,59.56h-0.9V57.1h0.9V59.56z M618.27,53.89h-0.9v-2.46h0.9V53.89z M618.27,48.22h-0.9v-2.46h0.9V48.22z M620.93,82.22
				h-0.9v-2.46h0.9V82.22z M620.93,76.56h-0.9V74.1h0.9V76.56z M620.93,70.89h-0.9v-2.46h0.9V70.89z M620.93,65.22h-0.9v-2.46h0.9
				V65.22z M620.93,59.56h-0.9V57.1h0.9V59.56z M620.93,53.89h-0.9v-2.46h0.9V53.89z M620.93,48.22h-0.9v-2.46h0.9V48.22z
				 M623.6,82.22h-0.9v-2.46h0.9V82.22z M623.6,76.56h-0.9V74.1h0.9V76.56z M623.6,70.89h-0.9v-2.46h0.9V70.89z M623.6,65.22h-0.9
				v-2.46h0.9V65.22z M623.6,59.56h-0.9V57.1h0.9V59.56z M623.6,53.89h-0.9v-2.46h0.9V53.89z M623.6,48.22h-0.9v-2.46h0.9V48.22z
				 M630.07,83.63h-1.52v-1.47h1.52V83.63z M630.07,78.49h-1.52v-1.47h1.52V78.49z M630.07,73.35h-1.52v-1.47h1.52V73.35z
				 M630.07,68.21h-1.52v-1.47h1.52V68.21z M632.96,83.63h-1.52v-1.47h1.52V83.63z M632.96,78.49h-1.52v-1.47h1.52V78.49z
				 M632.96,73.35h-1.52v-1.47h1.52V73.35z M632.96,68.21h-1.52v-1.47h1.52V68.21z M642.25,81.2h-1.32v-1.4h1.32V81.2z
				 M642.25,76.91h-1.32v-1.4h1.32V76.91z M646.03,81.2h-1.32v-1.4h1.32V81.2z M646.03,76.91h-1.32v-1.4h1.32V76.91z M649.82,81.2
				h-1.32v-1.4h1.32V81.2z M649.82,76.91h-1.32v-1.4h1.32V76.91z M660.06,83.45h-0.84v-1.47h0.84V83.45z M660.06,80.58h-0.84v-1.47
				h0.84V80.58z M662.78,83.45h-0.84v-1.47h0.84V83.45z M662.78,80.58h-0.84v-1.47h0.84V80.58z M665.51,83.45h-0.84v-1.47h0.84
				V83.45z M665.51,80.58h-0.84v-1.47h0.84V80.58z M665.09,76.95c-0.69,0-1.24-0.56-1.24-1.24c0-0.69,0.56-1.24,1.24-1.24
				c0.69,0,1.24,0.56,1.24,1.24C666.34,76.4,665.78,76.95,665.09,76.95z M668.24,83.45h-0.84v-1.47h0.84V83.45z M668.24,80.58h-0.84
				v-1.47h0.84V80.58z M670.97,83.45h-0.84v-1.47h0.84V83.45z M670.97,80.58h-0.84v-1.47h0.84V80.58z M676.69,56.55h-0.59v-1.18
				h0.59V56.55z M677.46,58.7h-0.59v-1.18h0.59V58.7z M680.14,30.06h0.43v0.85h-0.43V30.06z M679.09,30.06h0.42v0.85h-0.42V30.06z
				 M678.59,31.62h0.43v0.85h-0.43V31.62z M678.04,30.06h0.43v0.85h-0.43V30.06z M677.54,31.62h0.42v0.85h-0.42V31.62z
				 M678.14,56.55h-0.59v-1.18h0.59V56.55z M678.91,58.7h-0.59v-1.18h0.59V58.7z M679.59,56.55h-0.59v-1.18h0.59V56.55z
				 M679.64,31.62h0.42v0.85h-0.42V31.62z M680.36,58.7h-0.59v-1.18h0.59V58.7z M681.05,56.55h-0.59v-1.18h0.59V56.55z
				 M681.11,32.47h-0.43v-0.85h0.43V32.47z M681.91,55.37h0.59v1.18h-0.59V55.37z M681.22,57.53h0.59v1.18h-0.59V57.53z
				 M684.83,83.91h-1.02v-1.13h1.02V83.91z M684.83,80.64h-1.02v-1.13h1.02V80.64z M688.52,82.91h-0.68v-1.24h0.68V82.91z
				 M688.52,79.69h-0.68v-1.24h0.68V79.69z M688.52,76.47h-0.68v-1.24h0.68V76.47z M688.52,73.25h-0.68V72h0.68V73.25z
				 M688.52,70.03h-0.68v-1.24h0.68V70.03z M691.01,82.91h-0.68v-1.24h0.68V82.91z M691.01,79.69h-0.68v-1.24h0.68V79.69z
				 M691.01,76.47h-0.68v-1.24h0.68V76.47z M691.01,73.25h-0.68V72h0.68V73.25z M691.01,70.03h-0.68v-1.24h0.68V70.03z
				 M691.01,67.09h-0.68v-1.24h0.68V67.09z M693.49,82.91h-0.68v-1.24h0.68V82.91z M693.49,79.69h-0.68v-1.24h0.68V79.69z
				 M693.49,76.47h-0.68v-1.24h0.68V76.47z M693.49,73.25h-0.68V72h0.68V73.25z M693.49,70.03h-0.68v-1.24h0.68V70.03z M703.59,69.3
				h-1.09V68.4h1.09V69.3z M703.59,67.64h-1.09v-0.89h1.09V67.64z M707.24,53.9h0.64v0.99h-0.64V53.9z M704.16,54.9V53.9h0.64v0.99
				H704.16z M705.58,69.3h-1.09V68.4h1.09V69.3z M705.58,67.64h-1.09v-0.89h1.09V67.64z M706.34,54.9h-0.64V53.9h0.64V54.9z
				 M707.56,69.3h-1.09V68.4h1.09V69.3z M707.56,67.64h-1.09v-0.89h1.09V67.64z M708.45,66.75h1.09v0.89h-1.09V66.75z M708.45,68.4
				h1.09v0.89h-1.09V68.4z M720.87,83.36h-1.24v-1.24h1.24V83.36z M720.87,78.32h-1.24v-1.24h1.24V78.32z M720.87,73.27h-1.24v-1.24
				h1.24V73.27z M723.79,67.82c0.11-0.01,0.21-0.04,0.31-0.08l0.28,1.36h-0.59V67.82z M723.2,67.74c0.1,0.04,0.2,0.07,0.31,0.08
				v1.28h-0.59L723.2,67.74z M724.41,83.36h-1.24v-1.24h1.24V83.36z M724.41,78.32h-1.24v-1.24h1.24V78.32z M724.41,73.27h-1.24
				v-1.24h1.24V73.27z M727.31,70.87h0.51v3.43h-0.51V70.87z M727.82,76.06v1.11h-0.51v-1.11H727.82z M730.65,83.82h-0.68v-2.03
				h0.68V83.82z M730.65,79.3h-0.68v-2.03h0.68V79.3z M730.65,74.78h-0.79v-2.03h0.79V74.78z M730.65,70.26h-0.79v-2.03h0.79V70.26z
				 M730.65,65.74h-0.79V63.7h0.79V65.74z M730.65,61.22h-0.79v-2.04h0.79V61.22z M732.97,83.82h-0.79v-2.03h0.79V83.82z
				 M732.97,79.3h-0.79v-2.03h0.79V79.3z M732.97,74.78h-0.79v-2.03h0.79V74.78z M732.97,70.26h-0.79v-2.03h0.79V70.26z
				 M732.97,65.74h-0.79V63.7h0.79V65.74z M732.97,61.22h-0.79v-2.04h0.79V61.22z M735.29,83.82h-0.79v-2.03h0.79V83.82z
				 M735.29,79.3h-0.79v-2.03h0.79V79.3z M735.29,74.78h-0.79v-2.03h0.79V74.78z M735.29,70.26h-0.79v-2.03h0.79V70.26z
				 M735.29,65.74h-0.79V63.7h0.79V65.74z M735.29,61.22h-0.79v-2.04h0.79V61.22z M744.36,80.93h-1.11v-0.37h-0.05v-0.98h1.16V80.93
				z M744.36,78h-1.16v-1.35h1.16V78z M746.78,80.93h-1.16v-1.35h1.16V80.93z M746.78,78h-1.16v-1.35h1.16V78z M750.88,83.73h-1.3
				v-1.49h1.3V83.73z M750.88,80.51h-1.3v-1.49h1.3V80.51z M750.88,77.29h-1.3V75.8h1.3V77.29z M753.25,83.73h-1.63v-1.49h1.63
				V83.73z M753.25,80.51h-1.63v-1.49h1.63V80.51z M753.25,77.29h-1.63V75.8h1.63V77.29z M753.25,74.07h-1.63v-1.49h1.63V74.07z
				 M753.25,70.85h-1.63v-1.49h1.63V70.85z M753.25,67.63h-1.63v-1.49h1.63V67.63z M753.25,64.41h-1.63v-1.49h1.63V64.41z
				 M760.79,79.02h0.09v1.49h-0.09V79.02z M756.38,59.37h-1.1V57.9h1.1V59.37z M760.05,83.73h-1.63v-1.49h1.63V83.73z M760.05,80.51
				h-1.63v-1.49h1.63V80.51z M760.05,77.29h-1.63V75.8h1.63V77.29z M760.05,74.07h-1.63v-1.49h1.63V74.07z M760.05,70.85h-1.63
				v-1.49h1.63V70.85z M760.05,67.63h-1.63v-1.49h1.63V67.63z M760.05,64.41h-1.63v-1.49h1.63V64.41z M760.79,83.73v-1.49h0.09v1.49
				H760.79z M767.34,82.66h-1.15v-2.12h1.15V82.66z M767.34,77.78h-1.15v-2.12h1.15V77.78z M767.34,72.9h-1.15v-2.12h1.15V72.9z
				 M767.34,68.01h-1.15V65.9h1.15V68.01z M767.34,63.13h-1.15v-2.12h1.15V63.13z M767.34,58.25h-1.15v-2.12h1.15V58.25z
				 M770.75,82.66h-1.16v-2.12h1.16V82.66z M770.75,77.78h-1.16v-2.12h1.16V77.78z M770.75,72.9h-1.16v-2.12h1.16V72.9z
				 M770.75,68.01h-1.16V65.9h1.16V68.01z M770.75,63.13h-1.16v-2.12h1.16V63.13z M770.75,58.25h-1.16v-2.12h1.16V58.25z
				 M774.16,82.66H773v-2.12h1.16V82.66z M774.16,77.78H773v-2.12h1.16V77.78z M774.16,72.9H773v-2.12h1.16V72.9z M774.16,68.01H773
				V65.9h1.16V68.01z M774.16,63.13H773v-2.12h1.16V63.13z M795.52,55.72h0.94v2h-0.94V55.72z M795.52,60.07h0.94v2h-0.94V60.07z
				 M795.52,64.42h0.94v2h-0.94V64.42z M795.52,68.78h0.94v2h-0.94V68.78z M790.1,83.85h-0.94v-2h0.94V83.85z M790.1,79.49h-0.94v-2
				h0.94V79.49z M790.1,75.14h-0.94v-2h0.94V75.14z M790.1,70.78h-0.94v-2h0.94V70.78z M790.1,66.43h-0.94v-2h0.94V66.43z
				 M790.1,62.07h-0.94v-2h0.94V62.07z M790.1,57.72h-0.94v-2h0.94V57.72z M793.4,83.85h-0.94v-2h0.94V83.85z M793.4,79.49h-0.94v-2
				h0.94V79.49z M793.4,75.14h-0.94v-2h0.94V75.14z M793.4,70.78h-0.94v-2h0.94V70.78z M793.4,66.43h-0.94v-2h0.94V66.43z
				 M793.4,62.07h-0.94v-2h0.94V62.07z M793.4,57.72h-0.94v-2h0.94V57.72z M793.4,53.36h-0.94v-2h0.94V53.36z M796.46,83.85h-0.94
				v-2h0.94V83.85z M796.46,79.49h-0.94v-2h0.94V79.49z M796.46,75.14h-0.94v-2h0.94v1.37V75.14z M807.1,83.51h-0.76v-1.52h0.76
				V83.51z M807.1,80.01h-0.76V78.5h0.76V80.01z M807.1,76.52h-0.76V75h0.76V76.52z M807.1,73.02h-0.76v-1.52h0.76V73.02z
				 M807.1,69.53h-0.76v-1.52h0.76V69.53z M807.1,66.03h-0.76v-1.52h0.76V66.03z M809.34,83.51h-0.76v-1.52h0.76V83.51z
				 M809.34,80.01h-0.76V78.5h0.76V80.01z M809.34,76.52h-0.76V75h0.76V76.52z M809.34,73.02h-0.76v-1.52h0.76V73.02z M809.34,69.53
				h-0.76v-1.52h0.76V69.53z M809.34,66.03h-0.76v-1.52h0.76V66.03z M809.34,62.54h-0.76v-1.52h0.76V62.54z M809.34,57.87h-0.76
				v-1.52h0.76V57.87z M811.57,83.51h-0.76v-1.52h0.76V83.51z M811.57,80.01h-0.76V78.5h0.76V80.01z M811.57,76.52h-0.76V75h0.76
				V76.52z M811.57,73.02h-0.76v-1.52h0.76V73.02z M811.57,69.53h-0.76v-1.52h0.76V69.53z M811.57,66.03h-0.76v-1.52h0.76V66.03z
				 M817.05,80.99h-1.13v-1.7h1.13V80.99z M820.95,80.99h-1.14v-1.7h1.14V80.99z M824.85,80.99h-1.14v-1.7h1.14V80.99z"/>
			<polygon class="st1" points="504.2,109.31 503.58,109.31 503.58,109.61 504.2,109.61 504.51,109.61 504.51,109.31 504.51,108.69 
				504.2,108.69 			"/>
		</g>
	</g>
	<g>
		<defs>
			
				<rect id="SVGID_3_" x="-5.92" transform="matrix(-1 -1.224647e-16 1.224647e-16 -1 156.9172 89.483)" width="168.77" height="89.48"/>
		</defs>
		<clipPath id="SVGID_4_">
			<use xlink:href="#SVGID_3_"  style="overflow:visible;"/>
		</clipPath>
		<g class="st2">
			<path class="st1" d="M97.62,55.65h-0.65v-2.61h-1.19v2.61H93.6v2.17h-2.09v1.3h0.65v0.72h-0.65v1.3h0.65v0.72h-0.65v1.3h0.65
				v0.72h-0.65v1.3h0.65v0.72h-0.65v1.3h0.65v0.72h-0.65v1.3h0.65v0.05h-1.22c-0.36-1.01-1.32-1.73-2.45-1.73
				c-1.13,0-2.09,0.72-2.45,1.73h-1.5v1.16h0.38v8.1l-3.03-2.1l-3.96,2.74v0.64c-0.38-2.05-0.69-4.05-0.91-5.86
				c-0.2-1.59-0.34-3.04-0.44-4.25c-0.03-0.33-0.05-0.63-0.07-0.92h4.09l-4.16-3.52c0-0.82,0-1.77,0-2.74h4.16l-4.16-3.52
				c0-0.52,0-1,0-1.4c0-0.4,0-0.72,0-0.94c0-0.1,0-0.18,0-0.24l1.9-2.62h-8.59l1.9,2.62c0,0.32,0,1.31,0,2.59l-4.16,3.52h4.16
				c0,0.97,0,1.93,0,2.74l-4.16,3.52h4.08c-0.04,0.69-0.11,1.49-0.19,2.38c-0.27,2.86-0.78,6.61-1.57,10.41l-0.58-0.47v-1.76
				l0.45,0.37v-0.74l-3.12-2.54l-3.12,2.54v0.74l0.45-0.37v1.76l-0.53,0.43v-9.52h-1.08v-1.98h-3.36v1.98h-3.95V61.66h-1.04v-1.55
				h1.04v-1.04h-6.47v1.04h1.04v1.55h-1.04v13.72h-3.62V63.73V61.4v-1.81v-0.78v-0.26h-6.73v1.04h1.55v1.81h-1.55v13.97v0.16
				l-2.78-1.41l-2.72,1.38v-4.98h-1.2v-2.2h-3.74v2.2h-4.84v3.3h-1.54v1.54h1.54v1.76h-1.17l-0.82-0.67l-3.11,2.54v0.3h-0.95v6.18
				h1.4h2.09h2.56h0.68h7.98h1.11h2.72h2.78h1.04h5.69h3.62h6.07h0.4h6.69h1.7h0.53h2.23h0.87h1.55h0.68h0.93h1.3v-1.79l0.45,0.37
				V83.3l-0.23-0.19l2.3-1.75h0.09l2.65,2.01v2.1h1.16h1.61h2.39h3.03h2.14h4.45h0.54h6.84v-1.3h-0.65v-0.72h0.65v-1.3h-0.65v-0.72
				h0.65v-1.3h-0.65v-0.72h0.65v-1.3h-0.65v-0.72h0.65v-1.3h-0.65v-0.72h0.65v-1.3h-0.65V73.3h0.65V72h-0.65v-0.72h0.65v-1.3h-0.65
				v-0.72h0.65v-1.3h-0.65v-0.72h0.65v-1.3h-0.65V65.2h0.65v-1.3h-0.65v-0.72h0.65v-1.3h-0.65v-0.72h0.65v-1.3h-0.65v-0.72h0.65
				v-1.3h-1.28V55.65z M21.38,79.51v0.91v0.23h-1.02v-1.13H21.38z M21.38,83.91h-1.02v-1.13h1.02V83.91z M26.7,83.71h-1.02v-1.1
				h1.02V83.71z M26.7,80.21h-1.02v-1.1h1.02V80.21z M26.7,76.71h-1.02v-1.1h1.02V76.71z M26.7,73.2h-1.02v-1.1h1.02V73.2z
				 M29.47,83.71h-1.02v-1.1h1.02V83.71z M29.47,80.21h-1.02v-1.1h1.02V80.21z M29.47,76.71h-1.02v-1.1h1.02V76.71z M29.47,73.2
				h-1.02v-1.1h1.02V73.2z M34.67,80.53h-1.02v-1.47h1.02V80.53z M35.91,84.26H34.9v-1.47h1.02V84.26z M37.16,80.53h-1.02v-1.47
				h1.02V80.53z M42.98,63.14h0.62v1.5h-0.62V63.14z M42.98,66.94h0.62v1.5h-0.62V66.94z M42.98,70.74h0.62v1.5h-0.62V70.74z
				 M41.28,63.14h0.62v1.5h-0.62V63.14z M41.28,66.94h0.62v1.5h-0.62V66.94z M41.28,70.74h0.62v1.5h-0.62V70.74z M39.72,63.14h0.62
				v1.5h-0.62V63.14z M39.72,66.94h0.62v1.5h-0.62V66.94z M39.72,70.74h0.62v1.5h-0.62V70.74z M39.72,74.53h0.62v1.5h-0.62V74.53z
				 M41.16,83.37h-1.13v-0.9h1.13V83.37z M41.16,81.37h-1.13v-0.9h1.13V81.37z M41.16,79.37h-1.13v-0.9h1.13V79.37z M41.28,74.53
				h0.62v1.5h-0.62V74.53z M42.89,83.37h-1.13v-0.9h1.13V83.37z M42.89,81.37h-1.13v-0.9h1.13V81.37z M42.89,79.37h-1.13v-0.9h1.13
				V79.37z M42.98,74.53h0.62v1.5h-0.62V74.53z M44.62,83.37h-1.13v-0.9h1.13V83.37z M44.62,81.37h-1.13v-0.9h1.13V81.37z
				 M44.62,79.37h-1.13v-0.9h1.13V79.37z M46.35,83.37h-1.13v-0.9h1.13V83.37z M46.35,81.37h-1.13v-0.9h1.13V81.37z M46.35,79.37
				h-1.13v-0.9h1.13V79.37z M48.08,83.37h-1.13v-0.9h1.13V83.37z M48.08,81.37h-1.13v-0.9h1.13V81.37z M48.08,79.37h-1.13v-0.9h1.13
				V79.37z M53.23,80.92v0.45h-1.09v-0.9h1.13v0.45H53.23z M52.14,79.37v-0.9h1.09v0.87h0.04v0.03H52.14z M51.97,63.14h0.62v1.5
				h-0.62V63.14z M51.97,66.94h0.62v1.5h-0.62V66.94z M51.97,70.74h0.62v1.5h-0.62V70.74z M50.41,63.14h0.62v1.5h-0.62V63.14z
				 M50.41,66.94h0.62v1.5h-0.62V66.94z M50.41,70.74h0.62v1.5h-0.62V70.74z M50.41,74.53h0.62v1.5h-0.62V74.53z M49.81,83.37h-1.13
				v-0.9h1.13V83.37z M49.81,81.37h-1.13v-0.9h1.13V81.37z M49.81,79.37h-1.13v-0.9h1.13V79.37z M51.53,83.37h-1.13v-0.9h1.13V83.37
				z M51.53,81.37h-1.13v-0.9h1.13V81.37z M51.53,79.37h-1.13v-0.9h1.13V79.37z M51.97,74.53h0.62v1.5h-0.62V74.53z M53.26,83.37
				h-1.13v-0.9h1.13V83.37z M58.02,83.89H57.1V82.9h0.92V83.89z M58.02,80.74H57.1v-0.99h0.92V80.74z M58.02,77.59H57.1V76.6h0.92
				V77.59z M58.02,74.44H57.1v-0.99h0.92V74.44z M60.5,83.89h-0.92V82.9h0.92V83.89z M60.5,80.74h-0.92v-0.99h0.92V80.74z
				 M60.5,77.59h-0.92V76.6h0.92V77.59z M60.5,74.44h-0.92v-0.99h0.92V74.44z M65.74,84.48h-1.02v-1.02h1.02V84.48z M67.1,80.3
				h-1.02v-1.02h1.02V80.3z M68.46,84.48h-1.02v-1.02h1.02V84.48z M76.69,75.82c0.11,0.78,0.24,1.59,0.37,2.41l-2.68-2.27h2.31
				V75.82z M75.32,56.63l-1.28,0.9l-1.28-0.9H75.32z M73.02,56.01l1.02-0.66l1.02,0.66H73.02z M74.41,70.68l1.55-1.62
				c0.03,0.49,0.07,1.03,0.13,1.62H74.41z M76.12,71.04c0.01,0.07,0.01,0.14,0.02,0.21c0.05,0.55,0.11,1.12,0.18,1.73l-1.86-1.93
				H76.12z M75.42,59.51l-1.38,0.98l-1.39-0.98H75.42z M72.71,58.89l1.33-0.94l1.33,0.94H72.71z M75.87,59.6c0,0.69,0,1.44,0,2.19
				l-1.55-1.1L75.87,59.6z M75.47,61.91H72.6l1.44-1.02L75.47,61.91z M75.56,62.54l-1.52,1.07l-1.52-1.07H75.56z M75.87,62.72
				c0,0.77,0,1.51,0,2.19l-1.55-1.09L75.87,62.72z M75.63,65.15h-3.2l1.6-1.13L75.63,65.15z M75.48,65.77l-1.44,1.02l-1.44-1.02
				H75.48z M75.42,68.18h-2.77l1.38-0.98L75.42,68.18z M75.75,68.8l-1.72,1.79l-1.72-1.79H75.75z M74.32,67l1.55-1.09
				c0,0.39,0,0.74,0,1.02c0,0.32,0.01,0.72,0.03,1.2L74.32,67z M75.87,58.84l-1.55-1.09l1.55-1.1
				C75.87,57.06,75.87,57.86,75.87,58.84z M73.75,57.74l-1.5,1.06c0-0.44,0-0.84,0-1.19c0-0.39,0-0.71,0-0.94L73.75,57.74z
				 M73.75,60.69l-1.5,1.06c0-0.37,0-0.74,0-1.1c0-0.35,0-0.69,0-1.02L73.75,60.69z M73.75,63.82l-1.5,1.06c0-0.66,0-1.38,0-2.13
				L73.75,63.82z M73.75,67l-1.53,1.09c0.02-0.46,0.03-0.85,0.03-1.16c0-0.27,0-0.61,0-0.99L73.75,67z M73.66,70.68h-1.63
				c0.03-0.31,0.05-0.61,0.07-0.9c0.02-0.23,0.03-0.46,0.05-0.67L73.66,70.68z M73.61,71.04l-1.8,1.88c0.07-0.66,0.14-1.29,0.2-1.88
				H73.61z M74.04,71.06l2.35,2.45c0.01,0.05,0.01,0.1,0.02,0.16l-2.28,1.93h-0.17l-2.24-1.89c0.01-0.08,0.02-0.16,0.03-0.24
				L74.04,71.06z M76.66,75.6h-2.03l1.82-1.54C76.52,74.56,76.58,75.07,76.66,75.6z M78.93,68.18h-2.45c0-0.02,0-0.05,0-0.07
				c-0.02-0.47-0.03-0.87-0.03-1.19c0-0.24,0-0.52,0-0.85L78.93,68.18z M78.93,61.91h-2.48c0-0.42,0-0.85,0-1.26
				c0-0.29,0-0.57,0-0.85L78.93,61.91z M77.17,54.43l-1.15,1.58h-0.34l-1.33-0.85l1.13-0.72H77.17z M74.86,54.43l-0.82,0.53
				l-0.82-0.53H74.86z M70.95,54.43h1.65l1.13,0.72l-1.33,0.85h-0.3L70.95,54.43z M69.18,61.91l2.48-2.1c0,0.67,0,1.39,0,2.1H69.18z
				 M69.18,68.18l2.48-2.1c0,0.32,0,0.61,0,0.85c0,0.31-0.01,0.71-0.03,1.19c0,0.02,0,0.05,0,0.07H69.18z M71.66,74.09l1.78,1.5
				h-1.98C71.53,75.08,71.6,74.58,71.66,74.09z M71.41,75.96h2.28l-2.63,2.22C71.19,77.42,71.3,76.68,71.41,75.96z M71.44,82.9
				l-1.1-0.9c0.04-0.21,0.09-0.42,0.14-0.64h2.98L71.44,82.9z M70.54,81c0.14-0.68,0.26-1.36,0.38-2.04L73.61,81H70.54z
				 M74.05,80.91l-3.01-2.28l3-2.53l3,2.53L74.05,80.91z M77.19,78.93c0.12,0.68,0.25,1.37,0.39,2.06h-3.1L77.19,78.93z
				 M74.64,81.36h2.92l-0.82,0.45v1.15L74.64,81.36z M80.04,83.9h-0.79v-1.06h0.79V83.9z M81.14,80.7h-0.79v-1.06h0.79V80.7z
				 M82.3,83.9h-0.79v-1.06h0.79V83.9z M83.46,80.7h-0.79v-1.06h0.79V80.7z M84.56,83.9h-0.8v-1.06h0.8V83.9z M86.01,70.92h0.72
				v1.09h-0.72V70.92z M86.01,73.43h0.72v1.09h-0.72V73.43z M86.01,75.93h0.72v1.09h-0.72V75.93z M86.01,78.44h0.72v1.09h-0.72
				V78.44z M86.73,80.94v0.69l-0.72-0.39v-0.29H86.73z M88.85,84.53h-0.72v-1.09h0.72V84.53z M88.85,82.02h-0.72v-1.09h0.72V82.02z
				 M88.85,79.52h-0.72v-1.09h0.72V79.52z M88.85,77.02h-0.72v-1.09h0.72V77.02z M88.85,74.51h-0.72v-1.09h0.72V74.51z M88.85,72.01
				h-0.72v-1.09h0.72V72.01z M88.85,69.14h-0.72v-0.7h0.72V69.14z M90.97,84.53h-0.72v-1.09h0.72V84.53z M90.97,82.02h-0.72v-1.09
				h0.72V82.02z M90.97,79.52h-0.72v-1.09h0.72V79.52z M90.97,77.02h-0.72v-1.09h0.72V77.02z M90.97,74.51h-0.72v-1.09h0.72V74.51z
				 M90.97,72.01h-0.72v-1.09h0.72V72.01z M92.16,84.16h-0.11v-0.72h0.11V84.16z M92.16,82.14h-0.11v-0.72h0.11V82.14z M92.16,80.11
				h-0.11v-0.72h0.11V80.11z M92.16,78.08h-0.11v-0.72h0.11V78.08z M92.16,76.06h-0.11v-0.72h0.11V76.06z M92.16,74.03h-0.11V73.3
				h0.11V74.03z M92.16,72h-0.11v-0.72h0.11V72z M95.78,83.03h-1.51v-1.21h1.51V83.03z M95.78,79.41h-1.51V78.2h1.51V79.41z
				 M95.78,75.79h-1.51v-1.21h1.51V75.79z M95.78,72.17h-1.51v-1.21h1.51V72.17z M95.78,68.55h-1.51v-1.21h1.51V68.55z M95.78,64.93
				h-1.51v-1.21h1.51V64.93z M95.78,61.31h-1.51V60.1h1.51V61.31z"/>
			<polygon class="st1" points="58.7,14.6 58.08,14.6 58.08,14.91 58.7,14.91 59.01,14.91 59.01,14.6 59.01,13.98 58.7,13.98 			"/>
			<path class="st1" d="M381.94,79.29V76.1l-5.16-1.76v1.53l-4.48-1.53v1.53l-4.25-1.45V63.57l-1.71-4.65v-3.09v-2.27v-1.08h-1.31
				v1.08h-3.15v-1.08h-1.31v1.08v2.27v3.09l-1.71,4.65v10.93h-5.09c0.45-12.64,0.18-23.37-6.36-29.48
				c-5.89,5.51-6.69,14.79-6.46,25.82h-3.24v-4.41h-6.78v-9.4c-0.99-0.8-2.98-1.59-2.98-1.59v-4.57c-6.36,0.8-9.54,4.77-9.54,6.76
				c0,1.6,0,11.94,0,19.55h-3.03v0.11h-0.09V75.8h1.3v-1.74h-1.3v-1.49h1.3v-1.73h-1.3v-1.49h1.3v-1.73h-1.3v-1.49h1.3v-1.73h-1.3
				v-1.49h1.3v-1.73h-3.67v-4.96h-5.18v4.96h-3.67v1.73h1.3v1.49h-1.3v1.73h1.3v1.49h-1.3v1.73h1.3v1.49h-1.3v1.73h1.3v1.49h-0.72
				v-0.95h-10.39v1.37h0.59v6.08h-3.04V57.85V52.5v-6.24h-1.78v7.29l-7.72,4.59V69.1h-3.16l-0.31-1.51
				c0.28-0.21,0.47-0.55,0.47-0.94c0-0.65-0.53-1.18-1.18-1.18c-0.65,0-1.18,0.53-1.18,1.18c0,0.38,0.18,0.72,0.47,0.94l-0.31,1.51
				h-7.08v1.76h1.18v3.43h-1.18v1.76h1.18v0.19h-6.53c-0.65-3.46-0.82-5.83-0.82-5.83h1.16l0.41-4.78h-2.65
				c-0.66-5.29-0.62-9.79-0.62-9.79h0.79V52.8h-1.24v-4.09v-2.28h-0.91v-6.98h-0.58v6.98h-0.91v2.28v4.09h-1.24v3.05h0.79
				c0,0,0.04,4.5-0.62,9.79h-2.65l0.41,4.78h1.16c0,0-0.27,3.94-1.51,9.07v-3.54h-5.84v-9.61l-1.35-1.13v-1.35l-0.9-0.75
				c0-0.3-0.53-2.02-2.4-2.02c-1.88,0-2.4,1.72-2.4,2.02l-0.9,0.75v1.35l-1.35,1.13v11.44l-1.63-1.33l-1.8,1.47l-0.57-17.32h0.89
				l1.34-6.54h-2.44l-0.66-20.31h0.68l0.94-4.56h-1.76l-0.27-8.26h-0.93v-5.43h0.41v-1.58h-0.41v-2.49h-0.98v2.49h-0.41v1.58h0.41
				v5.43h-0.93l-0.27,8.26h-1.76l0.94,4.56h0.68l-0.66,20.31h-2.44l1.34,6.54h0.89l-0.52,15.85h-3.9v1.18h-4.03v-4.71h-6.08v4.71
				h-3.79v-4.71h-5.34V71.5l-3.82-4.46l-3.72,4.34l-3.72-4.34l-3.82,4.46v8.36h-1.42V64.01h-10.39V42.9h-2.39v-1.26h2.39v-1.01
				h-11.06v1.01h2.39v1.26h-2.39v38.73l-0.63-0.51v-1.76l0.45,0.37v-0.74l-3.12-2.54l-3.12,2.54v0.74l0.45-0.37v1.76l-2.36,1.92
				V61.75l-5.8-1.98l-3.97,1.68v8.81h-1.72l-1.77-2.03l-1.77,2.03h-1.24V52.17l-3.7-1.29l-3.7,1.29v3.22h-2.57h-2.57v-3.22
				l-3.7-1.29l-3.7,1.29V76.8h-1.73V66.53l-7.06-3.69v4.01h-0.83V46.42h-1.5v-2.63h-1.3v-1.96h-1.6V35.3h-0.8v6.53h-1.6v1.96h-1.3
				v2.63h-1.5v16.82c-0.14-0.32-0.3-0.63-0.46-0.91h-3.65c-1.98,3.35-1.98,9.44-1.98,11.27c0,1.83,0,11.88,0,11.88h6.1h1.52h7.61
				h0.46h9.62h0.51h17.93h1.51h6.49h1.03h8.74v-1.69l0.13-0.1v1.79h2.23h2.23h0.87h2.23h0.63h1.6h9.26h0.19h5.3h5.1h1.42h0.94h12.4
				h1.76h4.33h1.01h13.9h0.77h2.83h0.49h1.28l1.77-4.54l1.77,4.54h0.66h1.11h3.18h1.04h7.61h0.65h4.04h1.8h2.26
				c0,0,0.54-5.11,2.61-5.11c1.31,0,2,2.05,2.34,3.55v1.56h0.27h4.05h4.04h2.74h6.22h1.63h0.51h2.15h7.36h3.04h2.89h6.33h11.3h1.21
				h1.81h1.26h9.24h2.02h5.33h1.45h1.35h2.43h9.47h2.39h5.51h0.3h8.66h0.23h11.95h1.94h1.55v-6.18H381.94z M235.69,30.06h0.43v0.85
				h-0.43V30.06z M231.92,30.91h-0.42v-0.85h0.42V30.91z M105.12,67.77h0.61v1.33h-0.61V67.77z M105.12,70.85h0.61v1.33h-0.61V70.85
				z M105.12,73.92h0.61v1.33h-0.61V73.92z M105.12,77h0.61v1.33h-0.61V77z M105.12,80.08h0.61v1.33h-0.61V80.08z M101.76,84.49
				h-0.69v-1.33h0.69V84.49z M101.76,81.41h-0.69v-1.33h0.69V81.41z M101.76,78.34h-0.69V77h0.69V78.34z M101.76,75.26h-0.69v-1.33
				h0.69V75.26z M101.76,72.18h-0.69v-1.33h0.69V72.18z M101.76,69.11h-0.69v-1.33h0.69V69.11z M103.79,84.49h-0.69v-1.33h0.69
				V84.49z M103.79,81.41h-0.69v-1.33h0.69V81.41z M103.79,78.34h-0.69V77h0.69V78.34z M103.79,75.26h-0.69v-1.33h0.69V75.26z
				 M103.79,72.18h-0.69v-1.33h0.69V72.18z M103.79,69.11h-0.69v-1.33h0.69V69.11z M103.79,66.03h-0.69v-1.33h0.69V66.03z
				 M105.12,84.49v-1.33h0.61v1.33H105.12z M108.47,83.37h-0.84v-2.28h0.84V83.37z M108.47,78.11h-0.84v-2.28h0.84V78.11z
				 M108.47,72.85h-0.84v-2.28h0.84V72.85z M108.47,67.59h-0.84V65.3h0.84V67.59z M108.47,62.33h-0.84v-2.28h0.84V62.33z
				 M108.47,57.06h-0.84v-2.28h0.84V57.06z M108.47,51.8h-0.84v-2.28h0.84V51.8z M110.94,83.37h-0.84v-2.28h0.84V83.37z
				 M110.94,78.11h-0.84v-2.28h0.84V78.11z M110.94,72.85h-0.84v-2.28h0.84V72.85z M110.94,67.59h-0.84V65.3h0.84V67.59z
				 M110.94,62.33h-0.84v-2.28h0.84V62.33z M110.94,57.06h-0.84v-2.28h0.84V57.06z M110.94,51.8h-0.84v-2.28h0.84V51.8z
				 M113.42,83.37h-0.84v-2.28h0.84V83.37z M113.42,78.11h-0.84v-2.28h0.84V78.11z M113.42,72.85h-0.84v-2.28h0.84V72.85z
				 M113.42,67.59h-0.84V65.3h0.84V67.59z M113.42,62.33h-0.84v-2.28h0.84V62.33z M113.42,57.06h-0.84v-2.28h0.84V57.06z
				 M113.42,51.8h-0.84v-2.28h0.84V51.8z M116.88,83.92h-0.86v-1.72h0.86V83.92z M116.88,79.96h-0.86v-1.72h0.86V79.96z M116.88,76
				h-0.86v-1.72h0.86V76z M116.88,72.04h-0.86v-1.72h0.86V72.04z M119.42,83.92h-0.86v-1.72h0.86V83.92z M119.42,79.96h-0.86v-1.72
				h0.86V79.96z M119.42,76h-0.86v-1.72h0.86V76z M119.42,72.04h-0.86v-1.72h0.86V72.04z M121.96,83.92h-0.86v-1.72h0.86V83.92z
				 M121.96,79.96h-0.86v-1.72h0.86V79.96z M121.96,76h-0.86v-1.72h0.86V76z M121.96,72.04h-0.86v-1.72h0.86V72.04z M129.44,82.78
				h-1.17v-2.34h1.17V82.78z M129.44,77.44h-1.17V75.1h1.17V77.44z M129.44,72.1h-1.17v-2.33h1.17V72.1z M129.44,66.76h-1.17v-2.33
				h1.17V66.76z M129.44,61.42h-1.17v-2.34h1.17V61.42z M129.88,55.02h-2.49v-1.65l1.25-0.43l1.25,0.43V55.02z M133.34,82.78h-1.17
				v-2.34h1.17V82.78z M133.34,77.44h-1.17V75.1h1.17V77.44z M133.34,72.1h-1.17v-2.33h1.17V72.1z M133.34,66.76h-1.17v-2.33h1.17
				V66.76z M133.34,61.42h-1.17v-2.34h1.17V61.42z M137.65,82.78h-1.17v-2.34h1.17V82.78z M137.65,77.44h-1.17V75.1h1.17V77.44z
				 M137.65,72.1h-1.17v-2.33h1.17V72.1z M137.65,66.76h-1.17v-2.33h1.17V66.76z M137.65,61.42h-1.17v-2.34h1.17V61.42z
				 M141.55,82.78h-1.17v-2.34h1.17V82.78z M141.55,77.44h-1.17V75.1h1.17V77.44z M141.55,72.1h-1.17v-2.33h1.17V72.1z
				 M141.55,66.76h-1.17v-2.33h1.17V66.76z M141.55,61.42h-1.17v-2.34h1.17V61.42z M142.43,55.02h-2.49v-1.65l1.25-0.43l1.25,0.43
				V55.02z M145.63,82.83h-0.68v-1.36h0.68V82.83z M145.63,79.78h-0.68v-1.35h0.68V79.78z M145.63,76.73h-0.68v-1.36h0.68V76.73z
				 M145.63,73.68h-0.68v-1.36h0.68V73.68z M148.23,82.83h-0.68v-1.36h0.68V82.83z M148.23,79.78h-0.68v-1.35h0.68V79.78z
				 M148.23,76.73h-0.68v-1.36h0.68V76.73z M148.23,73.68h-0.68v-1.36h0.68V73.68z M150.83,82.83h-0.68v-1.36h0.68V82.83z
				 M150.83,79.78h-0.68v-1.35h0.68V79.78z M150.83,76.73h-0.68v-1.36h0.68V76.73z M150.83,73.68h-0.68v-1.36h0.68V73.68z
				 M156.9,82.93h-0.61v-1.57l0.61,0.02V82.93z M156.9,79.49l-0.61-0.04v-1.57l0.61,0.06V79.49z M156.9,76.05l-0.61-0.09V74.4
				l0.61,0.11V76.05z M156.9,72.61l-0.61-0.13v-1.57l0.61,0.15V72.61z M156.9,69.17L156.29,69v-1.57l0.61,0.19V69.17z M156.9,65.73
				l-0.61-0.22v-1.57l0.61,0.24V65.73z M158.6,82.93h-0.56v-1.51l0.56,0.02V82.93z M158.6,79.61l-0.56-0.04v-1.51l0.56,0.06V79.61z
				 M158.6,76.3l-0.56-0.08V74.7l0.56,0.1V76.3z M158.6,72.98l-0.56-0.12v-1.51l0.56,0.14V72.98z M158.6,69.66l-0.56-0.16v-1.51
				l0.56,0.18V69.66z M158.6,66.34l-0.56-0.2v-1.51l0.56,0.22V66.34z M160.18,82.93h-0.53v-1.46l0.53,0.02V82.93z M160.18,79.73
				l-0.53-0.04v-1.46l0.53,0.05V79.73z M160.18,76.52l-0.53-0.08v-1.46l0.53,0.09V76.52z M160.18,73.32l-0.53-0.11v-1.46l0.53,0.13
				V73.32z M160.18,70.11l-0.53-0.15v-1.46l0.53,0.17V70.11z M160.18,66.91l-0.53-0.19v-1.46l0.53,0.21V66.91z M165.32,84.48h-1.02
				v-1.02h1.02V84.48z M166.67,80.3h-1.02v-1.02h1.02V80.3z M168.03,84.48h-1.02v-1.02h1.02V84.48z M172.77,82.22h-0.9v-2.46h0.9
				V82.22z M172.77,76.56h-0.9V74.1h0.9V76.56z M172.77,70.89h-0.9v-2.46h0.9V70.89z M172.77,65.22h-0.9v-2.46h0.9V65.22z
				 M172.77,59.56h-0.9V57.1h0.9V59.56z M172.77,53.89h-0.9v-2.46h0.9V53.89z M172.77,48.22h-0.9v-2.46h0.9V48.22z M175.44,82.22
				h-0.9v-2.46h0.9V82.22z M175.44,76.56h-0.9V74.1h0.9V76.56z M175.44,70.89h-0.9v-2.46h0.9V70.89z M175.44,65.22h-0.9v-2.46h0.9
				V65.22z M175.44,59.56h-0.9V57.1h0.9V59.56z M175.44,53.89h-0.9v-2.46h0.9V53.89z M175.44,48.22h-0.9v-2.46h0.9V48.22z
				 M178.1,82.22h-0.9v-2.46h0.9V82.22z M178.1,76.56h-0.9V74.1h0.9V76.56z M178.1,70.89h-0.9v-2.46h0.9V70.89z M178.1,65.22h-0.9
				v-2.46h0.9V65.22z M178.1,59.56h-0.9V57.1h0.9V59.56z M178.1,53.89h-0.9v-2.46h0.9V53.89z M178.1,48.22h-0.9v-2.46h0.9V48.22z
				 M184.57,83.63h-1.52v-1.47h1.52V83.63z M184.57,78.49h-1.52v-1.47h1.52V78.49z M184.57,73.35h-1.52v-1.47h1.52V73.35z
				 M184.57,68.21h-1.52v-1.47h1.52V68.21z M187.46,83.63h-1.52v-1.47h1.52V83.63z M187.46,78.49h-1.52v-1.47h1.52V78.49z
				 M187.46,73.35h-1.52v-1.47h1.52V73.35z M187.46,68.21h-1.52v-1.47h1.52V68.21z M196.75,81.2h-1.32v-1.4h1.32V81.2z
				 M196.75,76.91h-1.32v-1.4h1.32V76.91z M200.53,81.2h-1.32v-1.4h1.32V81.2z M200.53,76.91h-1.32v-1.4h1.32V76.91z M204.32,81.2
				H203v-1.4h1.32V81.2z M204.32,76.91H203v-1.4h1.32V76.91z M214.56,83.45h-0.84v-1.47h0.84V83.45z M214.56,80.58h-0.84v-1.47h0.84
				V80.58z M217.29,83.45h-0.84v-1.47h0.84V83.45z M217.29,80.58h-0.84v-1.47h0.84V80.58z M220.01,83.45h-0.84v-1.47h0.84V83.45z
				 M220.01,80.58h-0.84v-1.47h0.84V80.58z M219.59,76.95c-0.69,0-1.24-0.56-1.24-1.24c0-0.69,0.56-1.24,1.24-1.24
				c0.69,0,1.24,0.56,1.24,1.24C220.84,76.4,220.28,76.95,219.59,76.95z M222.74,83.45h-0.84v-1.47h0.84V83.45z M222.74,80.58h-0.84
				v-1.47h0.84V80.58z M225.47,83.45h-0.84v-1.47h0.84V83.45z M225.47,80.58h-0.84v-1.47h0.84V80.58z M231.19,56.55h-0.59v-1.18
				h0.59V56.55z M231.96,58.7h-0.59v-1.18h0.59V58.7z M234.64,30.06h0.43v0.85h-0.43V30.06z M233.59,30.06h0.42v0.85h-0.42V30.06z
				 M233.1,31.62h0.43v0.85h-0.43V31.62z M232.54,30.06h0.43v0.85h-0.43V30.06z M232.05,31.62h0.42v0.85h-0.42V31.62z M232.64,56.55
				h-0.59v-1.18h0.59V56.55z M233.41,58.7h-0.59v-1.18h0.59V58.7z M234.1,56.55h-0.59v-1.18h0.59V56.55z M234.14,31.62h0.42v0.85
				h-0.42V31.62z M234.86,58.7h-0.59v-1.18h0.59V58.7z M235.55,56.55h-0.59v-1.18h0.59V56.55z M235.62,32.47h-0.43v-0.85h0.43V32.47
				z M236.41,55.37H237v1.18h-0.59V55.37z M235.73,57.53h0.59v1.18h-0.59V57.53z M239.33,83.91h-1.02v-1.13h1.02V83.91z
				 M239.33,80.64h-1.02v-1.13h1.02V80.64z M243.02,82.91h-0.68v-1.24h0.68V82.91z M243.02,79.69h-0.68v-1.24h0.68V79.69z
				 M243.02,76.47h-0.68v-1.24h0.68V76.47z M243.02,73.25h-0.68V72h0.68V73.25z M243.02,70.03h-0.68v-1.24h0.68V70.03z
				 M245.51,82.91h-0.68v-1.24h0.68V82.91z M245.51,79.69h-0.68v-1.24h0.68V79.69z M245.51,76.47h-0.68v-1.24h0.68V76.47z
				 M245.51,73.25h-0.68V72h0.68V73.25z M245.51,70.03h-0.68v-1.24h0.68V70.03z M245.51,67.09h-0.68v-1.24h0.68V67.09z
				 M247.99,82.91h-0.68v-1.24h0.68V82.91z M247.99,79.69h-0.68v-1.24h0.68V79.69z M247.99,76.47h-0.68v-1.24h0.68V76.47z
				 M247.99,73.25h-0.68V72h0.68V73.25z M247.99,70.03h-0.68v-1.24h0.68V70.03z M258.09,69.3H257V68.4h1.09V69.3z M258.09,67.64H257
				v-0.89h1.09V67.64z M261.75,53.9h0.64v0.99h-0.64V53.9z M258.66,54.9V53.9h0.64v0.99H258.66z M260.08,69.3h-1.09V68.4h1.09V69.3z
				 M260.08,67.64h-1.09v-0.89h1.09V67.64z M260.85,54.9h-0.64V53.9h0.64V54.9z M262.06,69.3h-1.09V68.4h1.09V69.3z M262.06,67.64
				h-1.09v-0.89h1.09V67.64z M262.96,66.75h1.09v0.89h-1.09V66.75z M262.96,68.4h1.09v0.89h-1.09V68.4z M275.37,83.36h-1.24v-1.24
				h1.24V83.36z M275.37,78.32h-1.24v-1.24h1.24V78.32z M275.37,73.27h-1.24v-1.24h1.24V73.27z M278.29,67.82
				c0.11-0.01,0.21-0.04,0.31-0.08l0.28,1.36h-0.59V67.82z M277.7,67.74c0.1,0.04,0.2,0.07,0.31,0.08v1.28h-0.59L277.7,67.74z
				 M278.91,83.36h-1.24v-1.24h1.24V83.36z M278.91,78.32h-1.24v-1.24h1.24V78.32z M278.91,73.27h-1.24v-1.24h1.24V73.27z
				 M281.81,70.87h0.51v3.43h-0.51V70.87z M282.32,76.06v1.11h-0.51v-1.11H282.32z M285.15,83.82h-0.68v-2.03h0.68V83.82z
				 M285.15,79.3h-0.68v-2.03h0.68V79.3z M285.15,74.78h-0.79v-2.03h0.79V74.78z M285.15,70.26h-0.79v-2.03h0.79V70.26z
				 M285.15,65.74h-0.79V63.7h0.79V65.74z M285.15,61.22h-0.79v-2.04h0.79V61.22z M287.47,83.82h-0.79v-2.03h0.79V83.82z
				 M287.47,79.3h-0.79v-2.03h0.79V79.3z M287.47,74.78h-0.79v-2.03h0.79V74.78z M287.47,70.26h-0.79v-2.03h0.79V70.26z
				 M287.47,65.74h-0.79V63.7h0.79V65.74z M287.47,61.22h-0.79v-2.04h0.79V61.22z M289.79,83.82H289v-2.03h0.79V83.82z M289.79,79.3
				H289v-2.03h0.79V79.3z M289.79,74.78H289v-2.03h0.79V74.78z M289.79,70.26H289v-2.03h0.79V70.26z M289.79,65.74H289V63.7h0.79
				V65.74z M289.79,61.22H289v-2.04h0.79V61.22z M298.87,80.93h-1.11v-0.37h-0.05v-0.98h1.16V80.93z M298.87,78h-1.16v-1.35h1.16V78
				z M301.28,80.93h-1.16v-1.35h1.16V80.93z M301.28,78h-1.16v-1.35h1.16V78z M305.38,83.73h-1.3v-1.49h1.3V83.73z M305.38,80.51
				h-1.3v-1.49h1.3V80.51z M305.38,77.29h-1.3V75.8h1.3V77.29z M307.75,83.73h-1.63v-1.49h1.63V83.73z M307.75,80.51h-1.63v-1.49
				h1.63V80.51z M307.75,77.29h-1.63V75.8h1.63V77.29z M307.75,74.07h-1.63v-1.49h1.63V74.07z M307.75,70.85h-1.63v-1.49h1.63V70.85
				z M307.75,67.63h-1.63v-1.49h1.63V67.63z M307.75,64.41h-1.63v-1.49h1.63V64.41z M315.29,79.02h0.09v1.49h-0.09V79.02z
				 M310.89,59.37h-1.1V57.9h1.1V59.37z M314.56,83.73h-1.63v-1.49h1.63V83.73z M314.56,80.51h-1.63v-1.49h1.63V80.51z
				 M314.56,77.29h-1.63V75.8h1.63V77.29z M314.56,74.07h-1.63v-1.49h1.63V74.07z M314.56,70.85h-1.63v-1.49h1.63V70.85z
				 M314.56,67.63h-1.63v-1.49h1.63V67.63z M314.56,64.41h-1.63v-1.49h1.63V64.41z M315.29,83.73v-1.49h0.09v1.49H315.29z
				 M321.84,82.66h-1.15v-2.12h1.15V82.66z M321.84,77.78h-1.15v-2.12h1.15V77.78z M321.84,72.9h-1.15v-2.12h1.15V72.9z
				 M321.84,68.01h-1.15V65.9h1.15V68.01z M321.84,63.13h-1.15v-2.12h1.15V63.13z M321.84,58.25h-1.15v-2.12h1.15V58.25z
				 M325.25,82.66h-1.16v-2.12h1.16V82.66z M325.25,77.78h-1.16v-2.12h1.16V77.78z M325.25,72.9h-1.16v-2.12h1.16V72.9z
				 M325.25,68.01h-1.16V65.9h1.16V68.01z M325.25,63.13h-1.16v-2.12h1.16V63.13z M325.25,58.25h-1.16v-2.12h1.16V58.25z
				 M328.66,82.66h-1.16v-2.12h1.16V82.66z M328.66,77.78h-1.16v-2.12h1.16V77.78z M328.66,72.9h-1.16v-2.12h1.16V72.9z
				 M328.66,68.01h-1.16V65.9h1.16V68.01z M328.66,63.13h-1.16v-2.12h1.16V63.13z M350.02,55.72h0.94v2h-0.94V55.72z M350.02,60.07
				h0.94v2h-0.94V60.07z M350.02,64.42h0.94v2h-0.94V64.42z M350.02,68.78h0.94v2h-0.94V68.78z M344.61,83.85h-0.94v-2h0.94V83.85z
				 M344.61,79.49h-0.94v-2h0.94V79.49z M344.61,75.14h-0.94v-2h0.94V75.14z M344.61,70.78h-0.94v-2h0.94V70.78z M344.61,66.43
				h-0.94v-2h0.94V66.43z M344.61,62.07h-0.94v-2h0.94V62.07z M344.61,57.72h-0.94v-2h0.94V57.72z M347.9,83.85h-0.94v-2h0.94V83.85
				z M347.9,79.49h-0.94v-2h0.94V79.49z M347.9,75.14h-0.94v-2h0.94V75.14z M347.9,70.78h-0.94v-2h0.94V70.78z M347.9,66.43h-0.94
				v-2h0.94V66.43z M347.9,62.07h-0.94v-2h0.94V62.07z M347.9,57.72h-0.94v-2h0.94V57.72z M347.9,53.36h-0.94v-2h0.94V53.36z
				 M350.96,83.85h-0.94v-2h0.94V83.85z M350.96,79.49h-0.94v-2h0.94V79.49z M350.96,75.14h-0.94v-2h0.94v1.37V75.14z M361.6,83.51
				h-0.76v-1.52h0.76V83.51z M361.6,80.01h-0.76V78.5h0.76V80.01z M361.6,76.52h-0.76V75h0.76V76.52z M361.6,73.02h-0.76v-1.52h0.76
				V73.02z M361.6,69.53h-0.76v-1.52h0.76V69.53z M361.6,66.03h-0.76v-1.52h0.76V66.03z M363.84,83.51h-0.76v-1.52h0.76V83.51z
				 M363.84,80.01h-0.76V78.5h0.76V80.01z M363.84,76.52h-0.76V75h0.76V76.52z M363.84,73.02h-0.76v-1.52h0.76V73.02z M363.84,69.53
				h-0.76v-1.52h0.76V69.53z M363.84,66.03h-0.76v-1.52h0.76V66.03z M363.84,62.54h-0.76v-1.52h0.76V62.54z M363.84,57.87h-0.76
				v-1.52h0.76V57.87z M366.08,83.51h-0.76v-1.52h0.76V83.51z M366.08,80.01h-0.76V78.5h0.76V80.01z M366.08,76.52h-0.76V75h0.76
				V76.52z M366.08,73.02h-0.76v-1.52h0.76V73.02z M366.08,69.53h-0.76v-1.52h0.76V69.53z M366.08,66.03h-0.76v-1.52h0.76V66.03z
				 M371.55,80.99h-1.13v-1.7h1.13V80.99z M375.45,80.99h-1.14v-1.7h1.14V80.99z M379.35,80.99h-1.14v-1.7h1.14V80.99z"/>
			<polygon class="st1" points="58.7,109.31 58.08,109.31 58.08,109.61 58.7,109.61 59.01,109.61 59.01,109.31 59.01,108.69 
				58.7,108.69 			"/>
		</g>
	</g>
</g>
</svg>
